<?xml version="1.0" encoding="utf-8"?>
<svg version="1.1" xmlns="http://www.w3.org/2000/svg" xmlns:xlink="http://www.w3.org/1999/xlink" id="1" x="0px" y="0px"
	 viewBox="0 0 521.27 399.9" xml:space="preserve">
<style type="text/css">
	.st0{fill:#FFFFFF;stroke:#FF0000;stroke-width:10;stroke-miterlimit:10;}
	.st1{fill:#FFFFFF;stroke:#00FF00;stroke-width:10;stroke-miterlimit:10;}
	.st2{fill:#FFFFFF;}
	.st3{fill:none;stroke:#000000;stroke-width:5;stroke-miterlimit:10;stroke-dasharray:10,10;}
	.st4{font-family:'Arial';}
	.st5{font-size:40px;}
</style>
<polyline class="st0" points="63.77,2.99 59.38,128.26 181.36,246.94 67.07,335.96 126.41,396.4 "/>
<polyline class="st1" points="394.54,2.99 301.14,128.26 368.72,293.1 349.49,354.64 388.29,396.4 "/>
<g>
	<line class="st2" x1="181.36" y1="246.94" x2="325.83" y2="188.49"/>
	<g>
		<line class="st3" x1="181.36" y1="246.94" x2="325.83" y2="188.49"/>
		<g>
			<g>
				
					<rect x="173.1" y="238.69" transform="matrix(0.927 -0.3751 0.3751 0.927 -79.381 86.0479)" class="st2" width="16.5" height="16.5"/>
				<path d="M176.11,259.32l17.62-7.13l-7.13-17.62l-17.62,7.13L176.11,259.32z M190.47,250.81l-12.98,5.25l-5.25-12.98l12.98-5.25
					L190.47,250.81z"/>
			</g>
		</g>
		<g>
			<g>
				<path class="st2" d="M329.36,197.2c4.81-1.95,7.13-7.43,5.19-12.24c-1.95-4.81-7.43-7.13-12.24-5.19
					c-4.81,1.95-7.13,7.43-5.19,12.24C319.06,196.83,324.54,199.15,329.36,197.2z"/>
				<path d="M329.82,198.36c-5.44,2.2-11.66-0.43-13.87-5.88s0.43-11.66,5.88-13.87c5.44-2.2,11.66,0.43,13.87,5.88
					C337.9,189.94,335.27,196.16,329.82,198.36C324.38,200.57,335.27,196.16,329.82,198.36z M322.77,180.94
					c-4.17,1.69-6.18,6.44-4.5,10.61c1.69,4.17,6.44,6.18,10.61,4.5c4.17-1.69,6.18-6.44,4.5-10.61S326.94,179.25,322.77,180.94
					C318.61,182.62,326.94,179.25,322.77,180.94z"/>
			</g>
		</g>
	</g>
</g>
<text transform="matrix(1 0 0 1 301.137 262.8329)" class="st4 st5">Root Point 2</text>
<text transform="matrix(1 0 0 1 1.525879e-04 188.4907)" class="st4 st5">Root Point 1</text>
</svg>
