<?xml version="1.0" encoding="utf-8"?>
<svg version="1.1" id="classic" xmlns="http://www.w3.org/2000/svg" xmlns:xlink="http://www.w3.org/1999/xlink" x="0px" y="0px"
	 viewBox="0 0 1652.9 686" style="enable-background:new 0 0 1652.9 686;" xml:space="preserve">
<style type="text/css">
	.st0{fill-rule:evenodd;clip-rule:evenodd;fill:#FFFFFF;stroke:#000000;stroke-width:3;stroke-miterlimit:10;}
	.st1{fill-rule:evenodd;clip-rule:evenodd;}
	.st2{fill-rule:evenodd;clip-rule:evenodd;stroke:#000000;stroke-miterlimit:10;}
</style>
<title>classic</title>
<g>
	<g transform="matrix(1,0,0,1,0,0)">
	</g>
	<g transform="matrix(1,0,0,1,0,0)">
		<rect x="6.7" y="7.1" class="st0" width="784.4" height="673.1"/>
	</g>
	<g transform="matrix(1,0,0,1,0,0)">
		<rect x="51.2" y="607.9" class="st1" width="27.8" height="27.8"/>
		<rect x="106.9" y="607.9" class="st1" width="27.8" height="27.8"/>
		<rect x="162.5" y="607.9" class="st1" width="27.8" height="27.8"/>
		<rect x="218.1" y="607.9" class="st1" width="27.8" height="27.8"/>
		<rect x="273.8" y="607.9" class="st1" width="27.8" height="27.8"/>
		<rect x="329.4" y="607.9" class="st1" width="27.8" height="27.8"/>
		<rect x="385" y="607.9" class="st1" width="27.8" height="27.8"/>
		<rect x="440.6" y="607.9" class="st1" width="27.8" height="27.8"/>
		<rect x="496.3" y="607.9" class="st1" width="27.8" height="27.8"/>
		<rect x="551.9" y="607.9" class="st1" width="27.8" height="27.8"/>
		<rect x="607.5" y="607.9" class="st1" width="27.8" height="27.8"/>
		<rect x="663.2" y="607.9" class="st1" width="27.8" height="27.8"/>
		<rect x="718.8" y="607.9" class="st1" width="27.8" height="27.8"/>
		<rect x="79.1" y="580.1" class="st1" width="27.8" height="27.8"/>
		<rect x="134.7" y="580.1" class="st1" width="27.8" height="27.8"/>
		<rect x="190.3" y="580.1" class="st1" width="27.8" height="27.8"/>
		<rect x="245.9" y="580.1" class="st1" width="27.8" height="27.8"/>
		<rect x="301.6" y="580.1" class="st1" width="27.8" height="27.8"/>
		<rect x="357.2" y="580.1" class="st1" width="27.8" height="27.8"/>
		<rect x="412.8" y="580.1" class="st1" width="27.8" height="27.8"/>
		<rect x="468.5" y="580.1" class="st1" width="27.8" height="27.8"/>
		<rect x="524.1" y="580.1" class="st1" width="27.8" height="27.8"/>
		<rect x="579.7" y="580.1" class="st1" width="27.8" height="27.8"/>
		<rect x="635.3" y="580.1" class="st1" width="27.8" height="27.8"/>
		<rect x="691" y="580.1" class="st1" width="27.8" height="27.8"/>
		<rect x="51.2" y="552.3" class="st1" width="27.8" height="27.8"/>
		<rect x="106.9" y="552.3" class="st1" width="27.8" height="27.8"/>
		<rect x="162.5" y="552.3" class="st1" width="27.8" height="27.8"/>
		<rect x="218.1" y="552.3" class="st1" width="27.8" height="27.8"/>
		<rect x="273.8" y="552.3" class="st1" width="27.8" height="27.8"/>
		<rect x="329.4" y="552.3" class="st1" width="27.8" height="27.8"/>
		<rect x="385" y="552.3" class="st1" width="27.8" height="27.8"/>
		<rect x="440.6" y="552.3" class="st1" width="27.8" height="27.8"/>
		<rect x="496.3" y="552.3" class="st1" width="27.8" height="27.8"/>
		<rect x="551.9" y="552.3" class="st1" width="27.8" height="27.8"/>
		<rect x="607.5" y="552.3" class="st1" width="27.8" height="27.8"/>
		<rect x="663.2" y="552.3" class="st1" width="27.8" height="27.8"/>
		<rect x="718.8" y="552.3" class="st1" width="27.8" height="27.8"/>
		<rect x="79.1" y="524.4" class="st1" width="27.8" height="27.8"/>
		<rect x="134.7" y="524.4" class="st1" width="27.8" height="27.8"/>
		<rect x="190.3" y="524.4" class="st1" width="27.8" height="27.8"/>
		<rect x="245.9" y="524.4" class="st1" width="27.8" height="27.8"/>
		<rect x="301.6" y="524.4" class="st1" width="27.8" height="27.8"/>
		<rect x="357.2" y="524.4" class="st1" width="27.8" height="27.8"/>
		<rect x="412.8" y="524.4" class="st1" width="27.8" height="27.8"/>
		<rect x="468.5" y="524.4" class="st1" width="27.8" height="27.8"/>
		<rect x="524.1" y="524.4" class="st1" width="27.8" height="27.8"/>
		<rect x="579.7" y="524.4" class="st1" width="27.8" height="27.8"/>
		<rect x="635.3" y="524.4" class="st1" width="27.8" height="27.8"/>
		<rect x="691" y="524.4" class="st1" width="27.8" height="27.8"/>
		<rect x="51.2" y="496.6" class="st1" width="27.8" height="27.8"/>
		<rect x="106.9" y="496.6" class="st1" width="27.8" height="27.8"/>
		<rect x="162.5" y="496.6" class="st1" width="27.8" height="27.8"/>
		<rect x="218.1" y="496.6" class="st1" width="27.8" height="27.8"/>
		<rect x="273.8" y="496.6" class="st1" width="27.8" height="27.8"/>
		<rect x="329.4" y="496.6" class="st1" width="27.8" height="27.8"/>
		<rect x="385" y="496.6" class="st1" width="27.8" height="27.8"/>
		<rect x="440.6" y="496.6" class="st1" width="27.8" height="27.8"/>
		<rect x="496.3" y="496.6" class="st1" width="27.8" height="27.8"/>
		<rect x="551.9" y="496.6" class="st1" width="27.8" height="27.8"/>
		<rect x="607.5" y="496.6" class="st1" width="27.8" height="27.8"/>
		<rect x="663.2" y="496.6" class="st1" width="27.8" height="27.8"/>
		<rect x="718.8" y="496.6" class="st1" width="27.8" height="27.8"/>
		<rect x="79.1" y="468.8" class="st1" width="27.8" height="27.8"/>
		<rect x="134.7" y="468.8" class="st1" width="27.8" height="27.8"/>
		<rect x="190.3" y="468.8" class="st1" width="27.8" height="27.8"/>
		<rect x="245.9" y="468.8" class="st1" width="27.8" height="27.8"/>
		<rect x="301.6" y="468.8" class="st1" width="27.8" height="27.8"/>
		<rect x="357.2" y="468.8" class="st1" width="27.8" height="27.8"/>
		<rect x="412.8" y="468.8" class="st1" width="27.8" height="27.8"/>
		<rect x="468.5" y="468.8" class="st1" width="27.8" height="27.8"/>
		<rect x="524.1" y="468.8" class="st1" width="27.8" height="27.8"/>
		<rect x="579.7" y="468.8" class="st1" width="27.8" height="27.8"/>
		<rect x="635.3" y="468.8" class="st1" width="27.8" height="27.8"/>
		<rect x="691" y="468.8" class="st1" width="27.8" height="27.8"/>
		<rect x="51.2" y="441" class="st1" width="27.8" height="27.8"/>
		<rect x="106.9" y="441" class="st1" width="27.8" height="27.8"/>
		<rect x="162.5" y="441" class="st1" width="27.8" height="27.8"/>
		<rect x="218.1" y="441" class="st1" width="27.8" height="27.8"/>
		<rect x="273.8" y="441" class="st1" width="27.8" height="27.8"/>
		<rect x="329.4" y="441" class="st1" width="27.8" height="27.8"/>
		<rect x="385" y="441" class="st1" width="27.8" height="27.8"/>
		<rect x="440.6" y="441" class="st1" width="27.8" height="27.8"/>
		<rect x="496.3" y="441" class="st1" width="27.8" height="27.8"/>
		<rect x="551.9" y="441" class="st1" width="27.8" height="27.8"/>
		<rect x="607.5" y="441" class="st1" width="27.8" height="27.8"/>
		<rect x="663.2" y="441" class="st1" width="27.8" height="27.8"/>
		<rect x="718.8" y="441" class="st1" width="27.8" height="27.8"/>
		<rect x="79.1" y="413.2" class="st1" width="27.8" height="27.8"/>
		<rect x="134.7" y="413.2" class="st1" width="27.8" height="27.8"/>
		<rect x="190.3" y="413.2" class="st1" width="27.8" height="27.8"/>
		<rect x="245.9" y="413.2" class="st1" width="27.8" height="27.8"/>
		<rect x="301.6" y="413.2" class="st1" width="27.8" height="27.8"/>
		<rect x="357.2" y="413.2" class="st1" width="27.8" height="27.8"/>
		<rect x="412.8" y="413.2" class="st1" width="27.8" height="27.8"/>
		<rect x="468.5" y="413.2" class="st1" width="27.8" height="27.8"/>
		<rect x="524.1" y="413.2" class="st1" width="27.8" height="27.8"/>
		<rect x="579.7" y="413.2" class="st1" width="27.8" height="27.8"/>
		<rect x="635.3" y="413.2" class="st1" width="27.8" height="27.8"/>
		<rect x="691" y="413.2" class="st1" width="27.8" height="27.8"/>
		<rect x="51.2" y="385.4" class="st1" width="27.8" height="27.8"/>
		<rect x="106.9" y="385.4" class="st1" width="27.8" height="27.8"/>
		<rect x="162.5" y="385.4" class="st1" width="27.8" height="27.8"/>
		<rect x="218.1" y="385.4" class="st1" width="27.8" height="27.8"/>
		<rect x="273.8" y="385.4" class="st1" width="27.8" height="27.8"/>
		<rect x="329.4" y="385.4" class="st1" width="27.8" height="27.8"/>
		<rect x="385" y="385.4" class="st1" width="27.8" height="27.8"/>
		<rect x="440.6" y="385.4" class="st1" width="27.8" height="27.8"/>
		<rect x="496.3" y="385.4" class="st1" width="27.8" height="27.8"/>
		<rect x="551.9" y="385.4" class="st1" width="27.8" height="27.8"/>
		<rect x="607.5" y="385.4" class="st1" width="27.8" height="27.8"/>
		<rect x="663.2" y="385.4" class="st1" width="27.8" height="27.8"/>
		<rect x="718.8" y="385.4" class="st1" width="27.8" height="27.8"/>
		<rect x="79.1" y="357.6" class="st1" width="27.8" height="27.8"/>
		<rect x="134.7" y="357.6" class="st1" width="27.8" height="27.8"/>
		<rect x="190.3" y="357.6" class="st1" width="27.8" height="27.8"/>
		<rect x="245.9" y="357.6" class="st1" width="27.8" height="27.8"/>
		<rect x="301.6" y="357.6" class="st1" width="27.8" height="27.8"/>
		<rect x="357.2" y="357.6" class="st1" width="27.8" height="27.8"/>
		<rect x="412.8" y="357.6" class="st1" width="27.8" height="27.8"/>
		<rect x="468.5" y="357.6" class="st1" width="27.8" height="27.8"/>
		<rect x="524.1" y="357.6" class="st1" width="27.8" height="27.8"/>
		<rect x="579.7" y="357.6" class="st1" width="27.8" height="27.8"/>
		<rect x="635.3" y="357.6" class="st1" width="27.8" height="27.8"/>
		<rect x="691" y="357.6" class="st1" width="27.8" height="27.8"/>
		<rect x="51.2" y="329.7" class="st1" width="27.8" height="27.8"/>
		<rect x="106.9" y="329.7" class="st1" width="27.8" height="27.8"/>
		<rect x="162.5" y="329.7" class="st1" width="27.8" height="27.8"/>
		<rect x="218.1" y="329.7" class="st1" width="27.8" height="27.8"/>
		<rect x="273.8" y="329.7" class="st1" width="27.8" height="27.8"/>
		<rect x="329.4" y="329.7" class="st1" width="27.8" height="27.8"/>
		<rect x="385" y="329.7" class="st1" width="27.8" height="27.8"/>
		<rect x="440.6" y="329.7" class="st1" width="27.8" height="27.8"/>
		<rect x="496.3" y="329.7" class="st1" width="27.8" height="27.8"/>
		<rect x="551.9" y="329.7" class="st1" width="27.8" height="27.8"/>
		<rect x="607.5" y="329.7" class="st1" width="27.8" height="27.8"/>
		<rect x="663.2" y="329.7" class="st1" width="27.8" height="27.8"/>
		<rect x="718.8" y="329.7" class="st1" width="27.8" height="27.8"/>
		<rect x="79.1" y="301.9" class="st1" width="27.8" height="27.8"/>
		<rect x="134.7" y="301.9" class="st1" width="27.8" height="27.8"/>
		<rect x="190.3" y="301.9" class="st1" width="27.8" height="27.8"/>
		<rect x="245.9" y="301.9" class="st1" width="27.8" height="27.8"/>
		<rect x="301.6" y="301.9" class="st1" width="27.8" height="27.8"/>
		<rect x="357.2" y="301.9" class="st1" width="27.8" height="27.8"/>
		<rect x="412.8" y="301.9" class="st1" width="27.8" height="27.8"/>
		<rect x="468.5" y="301.9" class="st1" width="27.8" height="27.8"/>
		<rect x="524.1" y="301.9" class="st1" width="27.8" height="27.8"/>
		<rect x="579.7" y="301.9" class="st1" width="27.8" height="27.8"/>
		<rect x="635.3" y="301.9" class="st1" width="27.8" height="27.8"/>
		<rect x="691" y="301.9" class="st1" width="27.8" height="27.8"/>
		<rect x="51.2" y="274.1" class="st1" width="27.8" height="27.8"/>
		<rect x="106.9" y="274.1" class="st1" width="27.8" height="27.8"/>
		<rect x="162.5" y="274.1" class="st1" width="27.8" height="27.8"/>
		<rect x="218.1" y="274.1" class="st1" width="27.8" height="27.8"/>
		<rect x="273.8" y="274.1" class="st1" width="27.8" height="27.8"/>
		<rect x="329.4" y="274.1" class="st1" width="27.8" height="27.8"/>
		<rect x="385" y="274.1" class="st1" width="27.8" height="27.8"/>
		<rect x="440.6" y="274.1" class="st1" width="27.8" height="27.8"/>
		<rect x="496.3" y="274.1" class="st1" width="27.8" height="27.8"/>
		<rect x="551.9" y="274.1" class="st1" width="27.8" height="27.8"/>
		<rect x="607.5" y="274.1" class="st1" width="27.8" height="27.8"/>
		<rect x="663.2" y="274.1" class="st1" width="27.8" height="27.8"/>
		<rect x="718.8" y="274.1" class="st1" width="27.8" height="27.8"/>
		<rect x="79.1" y="246.3" class="st1" width="27.8" height="27.8"/>
		<rect x="134.7" y="246.3" class="st1" width="27.8" height="27.8"/>
		<rect x="190.3" y="246.3" class="st1" width="27.8" height="27.8"/>
		<rect x="245.9" y="246.3" class="st1" width="27.8" height="27.8"/>
		<rect x="301.6" y="246.3" class="st1" width="27.8" height="27.8"/>
		<rect x="357.2" y="246.3" class="st1" width="27.8" height="27.8"/>
		<rect x="412.8" y="246.3" class="st1" width="27.8" height="27.8"/>
		<rect x="468.5" y="246.3" class="st1" width="27.8" height="27.8"/>
		<rect x="524.1" y="246.3" class="st1" width="27.8" height="27.8"/>
		<rect x="579.7" y="246.3" class="st1" width="27.8" height="27.8"/>
		<rect x="635.3" y="246.3" class="st1" width="27.8" height="27.8"/>
		<rect x="691" y="246.3" class="st1" width="27.8" height="27.8"/>
		<rect x="51.2" y="218.5" class="st1" width="27.8" height="27.8"/>
		<rect x="106.9" y="218.5" class="st1" width="27.8" height="27.8"/>
		<rect x="162.5" y="218.5" class="st1" width="27.8" height="27.8"/>
		<rect x="218.1" y="218.5" class="st1" width="27.8" height="27.8"/>
		<rect x="273.8" y="218.5" class="st1" width="27.8" height="27.8"/>
		<rect x="329.4" y="218.5" class="st1" width="27.8" height="27.8"/>
		<rect x="385" y="218.5" class="st1" width="27.8" height="27.8"/>
		<rect x="440.6" y="218.5" class="st1" width="27.8" height="27.8"/>
		<rect x="496.3" y="218.5" class="st1" width="27.8" height="27.8"/>
		<rect x="551.9" y="218.5" class="st1" width="27.8" height="27.8"/>
		<rect x="607.5" y="218.5" class="st1" width="27.8" height="27.8"/>
		<rect x="663.2" y="218.5" class="st1" width="27.8" height="27.8"/>
		<rect x="718.8" y="218.5" class="st1" width="27.8" height="27.8"/>
		<rect x="79.1" y="190.7" class="st1" width="27.8" height="27.8"/>
		<rect x="134.7" y="190.7" class="st1" width="27.8" height="27.8"/>
		<rect x="190.3" y="190.7" class="st1" width="27.8" height="27.8"/>
		<rect x="245.9" y="190.7" class="st1" width="27.8" height="27.8"/>
		<rect x="301.6" y="190.7" class="st1" width="27.8" height="27.8"/>
		<rect x="357.2" y="190.7" class="st1" width="27.8" height="27.8"/>
		<rect x="412.8" y="190.7" class="st1" width="27.8" height="27.8"/>
		<rect x="468.5" y="190.7" class="st1" width="27.8" height="27.8"/>
		<rect x="524.1" y="190.7" class="st1" width="27.8" height="27.8"/>
		<rect x="579.7" y="190.7" class="st1" width="27.8" height="27.8"/>
		<rect x="635.3" y="190.7" class="st1" width="27.8" height="27.8"/>
		<rect x="691" y="190.7" class="st1" width="27.8" height="27.8"/>
		<rect x="51.2" y="162.9" class="st1" width="27.8" height="27.8"/>
		<rect x="106.9" y="162.9" class="st1" width="27.8" height="27.8"/>
		<rect x="162.5" y="162.9" class="st1" width="27.8" height="27.8"/>
		<rect x="218.1" y="162.9" class="st1" width="27.8" height="27.8"/>
		<rect x="273.8" y="162.9" class="st1" width="27.8" height="27.8"/>
		<rect x="329.4" y="162.9" class="st1" width="27.8" height="27.8"/>
		<rect x="385" y="162.9" class="st1" width="27.8" height="27.8"/>
		<rect x="440.6" y="162.9" class="st1" width="27.8" height="27.8"/>
		<rect x="496.3" y="162.9" class="st1" width="27.8" height="27.8"/>
		<rect x="551.9" y="162.9" class="st1" width="27.8" height="27.8"/>
		<rect x="607.5" y="162.9" class="st1" width="27.8" height="27.8"/>
		<rect x="663.2" y="162.9" class="st1" width="27.8" height="27.8"/>
		<rect x="718.8" y="162.9" class="st1" width="27.8" height="27.8"/>
		<rect x="79.1" y="135" class="st1" width="27.8" height="27.8"/>
		<rect x="134.7" y="135" class="st1" width="27.8" height="27.8"/>
		<rect x="190.3" y="135" class="st1" width="27.8" height="27.8"/>
		<rect x="245.9" y="135" class="st1" width="27.8" height="27.8"/>
		<rect x="301.6" y="135" class="st1" width="27.8" height="27.8"/>
		<rect x="357.2" y="135" class="st1" width="27.8" height="27.8"/>
		<rect x="412.8" y="135" class="st1" width="27.8" height="27.8"/>
		<rect x="468.5" y="135" class="st1" width="27.8" height="27.8"/>
		<rect x="524.1" y="135" class="st1" width="27.8" height="27.8"/>
		<rect x="579.7" y="135" class="st1" width="27.8" height="27.8"/>
		<rect x="635.3" y="135" class="st1" width="27.8" height="27.8"/>
		<rect x="691" y="135" class="st1" width="27.8" height="27.8"/>
		<rect x="51.2" y="107.2" class="st1" width="27.8" height="27.8"/>
		<rect x="106.9" y="107.2" class="st1" width="27.8" height="27.8"/>
		<rect x="162.5" y="107.2" class="st1" width="27.8" height="27.8"/>
		<rect x="218.1" y="107.2" class="st1" width="27.8" height="27.8"/>
		<rect x="273.8" y="107.2" class="st1" width="27.8" height="27.8"/>
		<rect x="329.4" y="107.2" class="st1" width="27.8" height="27.8"/>
		<rect x="385" y="107.2" class="st1" width="27.8" height="27.8"/>
		<rect x="440.6" y="107.2" class="st1" width="27.8" height="27.8"/>
		<rect x="496.3" y="107.2" class="st1" width="27.8" height="27.8"/>
		<rect x="551.9" y="107.2" class="st1" width="27.8" height="27.8"/>
		<rect x="607.5" y="107.2" class="st1" width="27.8" height="27.8"/>
		<rect x="663.2" y="107.2" class="st1" width="27.8" height="27.8"/>
		<rect x="718.8" y="107.2" class="st1" width="27.8" height="27.8"/>
		<rect x="79.1" y="79.4" class="st1" width="27.8" height="27.8"/>
		<rect x="134.7" y="79.4" class="st1" width="27.8" height="27.8"/>
		<rect x="190.3" y="79.4" class="st1" width="27.8" height="27.8"/>
		<rect x="245.9" y="79.4" class="st1" width="27.8" height="27.8"/>
		<rect x="301.6" y="79.4" class="st1" width="27.8" height="27.8"/>
		<rect x="357.2" y="79.4" class="st1" width="27.8" height="27.8"/>
		<rect x="412.8" y="79.4" class="st1" width="27.8" height="27.8"/>
		<rect x="468.5" y="79.4" class="st1" width="27.8" height="27.8"/>
		<rect x="524.1" y="79.4" class="st1" width="27.8" height="27.8"/>
		<rect x="579.7" y="79.4" class="st1" width="27.8" height="27.8"/>
		<rect x="635.3" y="79.4" class="st1" width="27.8" height="27.8"/>
		<rect x="691" y="79.4" class="st1" width="27.8" height="27.8"/>
		<rect x="51.2" y="51.6" class="st1" width="27.8" height="27.8"/>
		<rect x="106.9" y="51.6" class="st1" width="27.8" height="27.8"/>
		<rect x="162.5" y="51.6" class="st1" width="27.8" height="27.8"/>
		<rect x="218.1" y="51.6" class="st1" width="27.8" height="27.8"/>
		<rect x="273.8" y="51.6" class="st1" width="27.8" height="27.8"/>
		<rect x="329.4" y="51.6" class="st1" width="27.8" height="27.8"/>
		<rect x="385" y="51.6" class="st1" width="27.8" height="27.8"/>
		<rect x="440.6" y="51.6" class="st1" width="27.8" height="27.8"/>
		<rect x="496.3" y="51.6" class="st1" width="27.8" height="27.8"/>
		<rect x="551.9" y="51.6" class="st1" width="27.8" height="27.8"/>
		<rect x="607.5" y="51.6" class="st1" width="27.8" height="27.8"/>
		<rect x="663.2" y="51.6" class="st1" width="27.8" height="27.8"/>
		<rect x="718.8" y="51.6" class="st1" width="27.8" height="27.8"/>
	</g>
</g>
<g>
	<g transform="matrix(1,0,0,1,0,0)">
	</g>
	<g transform="matrix(1,0,0,1,0,0)">
		<rect x="853.6" y="6.7" class="st0" width="790.1" height="673.9"/>
	</g>
	<g transform="matrix(1,0,0,1,0,0)">
		<circle class="st2" cx="914.6" cy="67.7" r="5.8"/>
		<circle class="st2" cx="943.6" cy="67.7" r="5.8"/>
		<circle class="st2" cx="972.6" cy="67.7" r="5.8"/>
		<circle class="st2" cx="1001.7" cy="67.7" r="5.8"/>
		<circle class="st2" cx="1030.7" cy="67.7" r="5.8"/>
		<circle class="st2" cx="1059.8" cy="67.7" r="5.8"/>
		<circle class="st2" cx="1088.8" cy="67.7" r="5.8"/>
		<circle class="st2" cx="1117.9" cy="67.7" r="5.8"/>
		<circle class="st2" cx="1146.9" cy="67.7" r="5.8"/>
		<circle class="st2" cx="1176" cy="67.7" r="5.8"/>
		<circle class="st2" cx="1205" cy="67.7" r="5.8"/>
		<circle class="st2" cx="1234.1" cy="67.7" r="5.8"/>
		<circle class="st2" cx="1263.1" cy="67.7" r="5.8"/>
		<circle class="st2" cx="1292.2" cy="67.7" r="5.8"/>
		<circle class="st2" cx="1321.2" cy="67.7" r="5.8"/>
		<circle class="st2" cx="1350.3" cy="67.7" r="5.8"/>
		<circle class="st2" cx="1379.3" cy="67.7" r="5.8"/>
		<circle class="st2" cx="1408.4" cy="67.7" r="5.8"/>
		<circle class="st2" cx="1437.4" cy="67.7" r="5.8"/>
		<circle class="st2" cx="1466.5" cy="67.7" r="5.8"/>
		<circle class="st2" cx="1495.5" cy="67.7" r="5.8"/>
		<circle class="st2" cx="1524.6" cy="67.7" r="5.8"/>
		<circle class="st2" cx="1553.6" cy="67.7" r="5.8"/>
		<circle class="st2" cx="1582.7" cy="67.7" r="5.8"/>
		<circle class="st2" cx="914.6" cy="96.7" r="5.8"/>
		<circle class="st2" cx="943.6" cy="96.7" r="5.8"/>
		<circle class="st2" cx="972.6" cy="96.7" r="5.8"/>
		<circle class="st2" cx="1001.7" cy="96.7" r="5.8"/>
		<circle class="st2" cx="1030.7" cy="96.7" r="5.8"/>
		<circle class="st2" cx="1059.8" cy="96.7" r="5.8"/>
		<circle class="st2" cx="1088.8" cy="96.7" r="5.8"/>
		<circle class="st2" cx="1117.9" cy="96.7" r="5.8"/>
		<circle class="st2" cx="1146.9" cy="96.7" r="5.8"/>
		<circle class="st2" cx="1176" cy="96.7" r="5.8"/>
		<circle class="st2" cx="1205" cy="96.7" r="5.8"/>
		<circle class="st2" cx="1234.1" cy="96.7" r="5.8"/>
		<circle class="st2" cx="1263.1" cy="96.7" r="5.8"/>
		<circle class="st2" cx="1292.2" cy="96.7" r="5.8"/>
		<circle class="st2" cx="1321.2" cy="96.7" r="5.8"/>
		<circle class="st2" cx="1350.3" cy="96.7" r="5.8"/>
		<circle class="st2" cx="1379.3" cy="96.7" r="5.8"/>
		<circle class="st2" cx="1408.4" cy="96.7" r="5.8"/>
		<circle class="st2" cx="1437.4" cy="96.7" r="5.8"/>
		<circle class="st2" cx="1466.5" cy="96.7" r="5.8"/>
		<circle class="st2" cx="1495.5" cy="96.7" r="5.8"/>
		<circle class="st2" cx="1524.6" cy="96.7" r="5.8"/>
		<circle class="st2" cx="1553.6" cy="96.7" r="5.8"/>
		<circle class="st2" cx="1582.7" cy="96.7" r="5.8"/>
		<circle class="st2" cx="914.6" cy="125.8" r="5.8"/>
		<circle class="st2" cx="943.6" cy="125.8" r="5.8"/>
		<circle class="st2" cx="972.6" cy="125.8" r="5.8"/>
		<circle class="st2" cx="1001.7" cy="125.8" r="5.8"/>
		<circle class="st2" cx="1030.7" cy="125.8" r="5.8"/>
		<circle class="st2" cx="1059.8" cy="125.8" r="5.8"/>
		<circle class="st2" cx="1088.8" cy="125.8" r="5.8"/>
		<circle class="st2" cx="1117.9" cy="125.8" r="5.8"/>
		<circle class="st2" cx="1146.9" cy="125.8" r="5.8"/>
		<circle class="st2" cx="1176" cy="125.8" r="5.8"/>
		<circle class="st2" cx="1205" cy="125.8" r="5.8"/>
		<circle class="st2" cx="1234.1" cy="125.8" r="5.8"/>
		<circle class="st2" cx="1263.1" cy="125.8" r="5.8"/>
		<circle class="st2" cx="1292.2" cy="125.8" r="5.8"/>
		<circle class="st2" cx="1321.2" cy="125.8" r="5.8"/>
		<circle class="st2" cx="1350.3" cy="125.8" r="5.8"/>
		<circle class="st2" cx="1379.3" cy="125.8" r="5.8"/>
		<circle class="st2" cx="1408.4" cy="125.8" r="5.8"/>
		<circle class="st2" cx="1437.4" cy="125.8" r="5.8"/>
		<circle class="st2" cx="1466.5" cy="125.8" r="5.8"/>
		<circle class="st2" cx="1495.5" cy="125.8" r="5.8"/>
		<circle class="st2" cx="1524.6" cy="125.8" r="5.8"/>
		<circle class="st2" cx="1553.6" cy="125.8" r="5.8"/>
		<circle class="st2" cx="1582.7" cy="125.8" r="5.8"/>
		<circle class="st2" cx="914.6" cy="154.8" r="5.8"/>
		<circle class="st2" cx="943.6" cy="154.8" r="5.8"/>
		<circle class="st2" cx="972.6" cy="154.8" r="5.8"/>
		<circle class="st2" cx="1001.7" cy="154.8" r="5.8"/>
		<circle class="st2" cx="1030.7" cy="154.8" r="5.8"/>
		<circle class="st2" cx="1059.8" cy="154.8" r="5.8"/>
		<circle class="st2" cx="1088.8" cy="154.8" r="5.8"/>
		<circle class="st2" cx="1117.9" cy="154.8" r="5.8"/>
		<circle class="st2" cx="1146.9" cy="154.8" r="5.8"/>
		<circle class="st2" cx="1176" cy="154.8" r="5.8"/>
		<circle class="st2" cx="1205" cy="154.8" r="5.8"/>
		<circle class="st2" cx="1234.1" cy="154.8" r="5.8"/>
		<circle class="st2" cx="1263.1" cy="154.8" r="5.8"/>
		<circle class="st2" cx="1292.2" cy="154.8" r="5.8"/>
		<circle class="st2" cx="1321.2" cy="154.8" r="5.8"/>
		<circle class="st2" cx="1350.3" cy="154.8" r="5.8"/>
		<circle class="st2" cx="1379.3" cy="154.8" r="5.8"/>
		<circle class="st2" cx="1408.4" cy="154.8" r="5.8"/>
		<circle class="st2" cx="1437.4" cy="154.8" r="5.8"/>
		<circle class="st2" cx="1466.5" cy="154.8" r="5.8"/>
		<circle class="st2" cx="1495.5" cy="154.8" r="5.8"/>
		<circle class="st2" cx="1524.6" cy="154.8" r="5.8"/>
		<circle class="st2" cx="1553.6" cy="154.8" r="5.8"/>
		<circle class="st2" cx="1582.7" cy="154.8" r="5.8"/>
		<circle class="st2" cx="914.6" cy="183.9" r="5.8"/>
		<circle class="st2" cx="943.6" cy="183.9" r="5.8"/>
		<circle class="st2" cx="972.6" cy="183.9" r="5.8"/>
		<circle class="st2" cx="1001.7" cy="183.9" r="5.8"/>
		<circle class="st2" cx="1030.7" cy="183.9" r="5.8"/>
		<circle class="st2" cx="1059.8" cy="183.9" r="5.8"/>
		<circle class="st2" cx="1088.8" cy="183.9" r="5.8"/>
		<circle class="st2" cx="1117.9" cy="183.9" r="5.8"/>
		<circle class="st2" cx="1146.9" cy="183.9" r="5.8"/>
		<circle class="st2" cx="1176" cy="183.9" r="5.8"/>
		<circle class="st2" cx="1205" cy="183.9" r="5.8"/>
		<circle class="st2" cx="1234.1" cy="183.9" r="5.8"/>
		<circle class="st2" cx="1263.1" cy="183.9" r="5.8"/>
		<circle class="st2" cx="1292.2" cy="183.9" r="5.8"/>
		<circle class="st2" cx="1321.2" cy="183.9" r="5.8"/>
		<circle class="st2" cx="1350.3" cy="183.9" r="5.8"/>
		<circle class="st2" cx="1379.3" cy="183.9" r="5.8"/>
		<circle class="st2" cx="1408.4" cy="183.9" r="5.8"/>
		<circle class="st2" cx="1437.4" cy="183.9" r="5.8"/>
		<circle class="st2" cx="1466.5" cy="183.9" r="5.8"/>
		<circle class="st2" cx="1495.5" cy="183.9" r="5.8"/>
		<circle class="st2" cx="1524.6" cy="183.9" r="5.8"/>
		<circle class="st2" cx="1553.6" cy="183.9" r="5.8"/>
		<circle class="st2" cx="1582.7" cy="183.9" r="5.8"/>
		<circle class="st2" cx="914.6" cy="212.9" r="5.8"/>
		<circle class="st2" cx="943.6" cy="212.9" r="5.8"/>
		<circle class="st2" cx="972.6" cy="212.9" r="5.8"/>
		<circle class="st2" cx="1001.7" cy="212.9" r="5.8"/>
		<circle class="st2" cx="1030.7" cy="212.9" r="5.8"/>
		<circle class="st2" cx="1059.8" cy="212.9" r="5.8"/>
		<circle class="st2" cx="1088.8" cy="212.9" r="5.8"/>
		<circle class="st2" cx="1117.9" cy="212.9" r="5.8"/>
		<circle class="st2" cx="1146.9" cy="212.9" r="5.8"/>
		<circle class="st2" cx="1176" cy="212.9" r="5.8"/>
		<circle class="st2" cx="1205" cy="212.9" r="5.8"/>
		<circle class="st2" cx="1234.1" cy="212.9" r="5.8"/>
		<circle class="st2" cx="1263.1" cy="212.9" r="5.8"/>
		<circle class="st2" cx="1292.2" cy="212.9" r="5.8"/>
		<circle class="st2" cx="1321.2" cy="212.9" r="5.8"/>
		<circle class="st2" cx="1350.3" cy="212.9" r="5.8"/>
		<circle class="st2" cx="1379.3" cy="212.9" r="5.8"/>
		<circle class="st2" cx="1408.4" cy="212.9" r="5.8"/>
		<circle class="st2" cx="1437.4" cy="212.9" r="5.8"/>
		<circle class="st2" cx="1466.5" cy="212.9" r="5.8"/>
		<circle class="st2" cx="1495.5" cy="212.9" r="5.8"/>
		<circle class="st2" cx="1524.6" cy="212.9" r="5.8"/>
		<circle class="st2" cx="1553.6" cy="212.9" r="5.8"/>
		<circle class="st2" cx="1582.7" cy="212.9" r="5.8"/>
		<circle class="st2" cx="914.6" cy="242" r="5.8"/>
		<circle class="st2" cx="943.6" cy="242" r="5.8"/>
		<circle class="st2" cx="972.6" cy="242" r="5.8"/>
		<circle class="st2" cx="1001.7" cy="242" r="5.8"/>
		<circle class="st2" cx="1030.7" cy="242" r="5.8"/>
		<circle class="st2" cx="1059.8" cy="242" r="5.8"/>
		<circle class="st2" cx="1088.8" cy="242" r="5.8"/>
		<circle class="st2" cx="1117.9" cy="242" r="5.8"/>
		<circle class="st2" cx="1146.9" cy="242" r="5.8"/>
		<circle class="st2" cx="1176" cy="242" r="5.8"/>
		<circle class="st2" cx="1205" cy="242" r="5.8"/>
		<circle class="st2" cx="1234.1" cy="242" r="5.8"/>
		<circle class="st2" cx="1263.1" cy="242" r="5.8"/>
		<circle class="st2" cx="1292.2" cy="242" r="5.8"/>
		<circle class="st2" cx="1321.2" cy="242" r="5.8"/>
		<circle class="st2" cx="1350.3" cy="242" r="5.8"/>
		<circle class="st2" cx="1379.3" cy="242" r="5.8"/>
		<circle class="st2" cx="1408.4" cy="242" r="5.8"/>
		<circle class="st2" cx="1437.4" cy="242" r="5.8"/>
		<circle class="st2" cx="1466.5" cy="242" r="5.8"/>
		<circle class="st2" cx="1495.5" cy="242" r="5.8"/>
		<circle class="st2" cx="1524.6" cy="242" r="5.8"/>
		<circle class="st2" cx="1553.6" cy="242" r="5.8"/>
		<circle class="st2" cx="1582.7" cy="242" r="5.8"/>
		<circle class="st2" cx="914.6" cy="271" r="5.8"/>
		<circle class="st2" cx="943.6" cy="271" r="5.8"/>
		<circle class="st2" cx="972.6" cy="271" r="5.8"/>
		<circle class="st2" cx="1001.7" cy="271" r="5.8"/>
		<circle class="st2" cx="1030.7" cy="271" r="5.8"/>
		<circle class="st2" cx="1059.8" cy="271" r="5.8"/>
		<circle class="st2" cx="1088.8" cy="271" r="5.8"/>
		<circle class="st2" cx="1117.9" cy="271" r="5.8"/>
		<circle class="st2" cx="1146.9" cy="271" r="5.8"/>
		<circle class="st2" cx="1176" cy="271" r="5.8"/>
		<circle class="st2" cx="1205" cy="271" r="5.8"/>
		<circle class="st2" cx="1234.1" cy="271" r="5.8"/>
		<circle class="st2" cx="1263.1" cy="271" r="5.8"/>
		<circle class="st2" cx="1292.2" cy="271" r="5.8"/>
		<circle class="st2" cx="1321.2" cy="271" r="5.8"/>
		<circle class="st2" cx="1350.3" cy="271" r="5.8"/>
		<circle class="st2" cx="1379.3" cy="271" r="5.8"/>
		<circle class="st2" cx="1408.4" cy="271" r="5.8"/>
		<circle class="st2" cx="1437.4" cy="271" r="5.8"/>
		<circle class="st2" cx="1466.5" cy="271" r="5.8"/>
		<circle class="st2" cx="1495.5" cy="271" r="5.8"/>
		<circle class="st2" cx="1524.6" cy="271" r="5.8"/>
		<circle class="st2" cx="1553.6" cy="271" r="5.8"/>
		<circle class="st2" cx="1582.7" cy="271" r="5.8"/>
		<circle class="st2" cx="914.6" cy="300.1" r="5.8"/>
		<circle class="st2" cx="943.6" cy="300.1" r="5.8"/>
		<circle class="st2" cx="972.6" cy="300.1" r="5.8"/>
		<circle class="st2" cx="1001.7" cy="300.1" r="5.8"/>
		<circle class="st2" cx="1030.7" cy="300.1" r="5.8"/>
		<circle class="st2" cx="1059.8" cy="300.1" r="5.8"/>
		<circle class="st2" cx="1088.8" cy="300.1" r="5.8"/>
		<circle class="st2" cx="1117.9" cy="300.1" r="5.8"/>
		<circle class="st2" cx="1146.9" cy="300.1" r="5.8"/>
		<circle class="st2" cx="1176" cy="300.1" r="5.8"/>
		<circle class="st2" cx="1205" cy="300.1" r="5.8"/>
		<circle class="st2" cx="1234.1" cy="300.1" r="5.8"/>
		<circle class="st2" cx="1263.1" cy="300.1" r="5.8"/>
		<circle class="st2" cx="1292.2" cy="300.1" r="5.8"/>
		<circle class="st2" cx="1321.2" cy="300.1" r="5.8"/>
		<circle class="st2" cx="1350.3" cy="300.1" r="5.8"/>
		<circle class="st2" cx="1379.3" cy="300.1" r="5.8"/>
		<circle class="st2" cx="1408.4" cy="300.1" r="5.8"/>
		<circle class="st2" cx="1437.4" cy="300.1" r="5.8"/>
		<circle class="st2" cx="1466.5" cy="300.1" r="5.8"/>
		<circle class="st2" cx="1495.5" cy="300.1" r="5.8"/>
		<circle class="st2" cx="1524.6" cy="300.1" r="5.8"/>
		<circle class="st2" cx="1553.6" cy="300.1" r="5.8"/>
		<circle class="st2" cx="1582.7" cy="300.1" r="5.8"/>
		<circle class="st2" cx="914.6" cy="329.1" r="5.8"/>
		<circle class="st2" cx="943.6" cy="329.1" r="5.8"/>
		<circle class="st2" cx="972.6" cy="329.1" r="5.8"/>
		<circle class="st2" cx="1001.7" cy="329.1" r="5.8"/>
		<circle class="st2" cx="1030.7" cy="329.1" r="5.8"/>
		<circle class="st2" cx="1059.8" cy="329.1" r="5.8"/>
		<circle class="st2" cx="1088.8" cy="329.1" r="5.8"/>
		<circle class="st2" cx="1117.9" cy="329.1" r="5.8"/>
		<circle class="st2" cx="1146.9" cy="329.1" r="5.8"/>
		<circle class="st2" cx="1176" cy="329.1" r="5.8"/>
		<circle class="st2" cx="1205" cy="329.1" r="5.8"/>
		<circle class="st2" cx="1234.1" cy="329.1" r="5.8"/>
		<circle class="st2" cx="1263.1" cy="329.1" r="5.8"/>
		<circle class="st2" cx="1292.2" cy="329.1" r="5.8"/>
		<circle class="st2" cx="1321.2" cy="329.1" r="5.8"/>
		<circle class="st2" cx="1350.3" cy="329.1" r="5.8"/>
		<circle class="st2" cx="1379.3" cy="329.1" r="5.8"/>
		<circle class="st2" cx="1408.4" cy="329.1" r="5.8"/>
		<circle class="st2" cx="1437.4" cy="329.1" r="5.8"/>
		<circle class="st2" cx="1466.5" cy="329.1" r="5.8"/>
		<circle class="st2" cx="1495.5" cy="329.1" r="5.8"/>
		<circle class="st2" cx="1524.6" cy="329.1" r="5.8"/>
		<circle class="st2" cx="1553.6" cy="329.1" r="5.8"/>
		<circle class="st2" cx="1582.7" cy="329.1" r="5.8"/>
		<circle class="st2" cx="914.6" cy="358.2" r="5.8"/>
		<circle class="st2" cx="943.6" cy="358.2" r="5.8"/>
		<circle class="st2" cx="972.6" cy="358.2" r="5.8"/>
		<circle class="st2" cx="1001.7" cy="358.2" r="5.8"/>
		<circle class="st2" cx="1030.7" cy="358.2" r="5.8"/>
		<circle class="st2" cx="1059.8" cy="358.2" r="5.8"/>
		<circle class="st2" cx="1088.8" cy="358.2" r="5.8"/>
		<circle class="st2" cx="1117.9" cy="358.2" r="5.8"/>
		<circle class="st2" cx="1146.9" cy="358.2" r="5.8"/>
		<circle class="st2" cx="1176" cy="358.2" r="5.8"/>
		<circle class="st2" cx="1205" cy="358.2" r="5.8"/>
		<circle class="st2" cx="1234.1" cy="358.2" r="5.8"/>
		<circle class="st2" cx="1263.1" cy="358.2" r="5.8"/>
		<circle class="st2" cx="1292.2" cy="358.2" r="5.8"/>
		<circle class="st2" cx="1321.2" cy="358.2" r="5.8"/>
		<circle class="st2" cx="1350.3" cy="358.2" r="5.8"/>
		<circle class="st2" cx="1379.3" cy="358.2" r="5.8"/>
		<circle class="st2" cx="1408.4" cy="358.2" r="5.8"/>
		<circle class="st2" cx="1437.4" cy="358.2" r="5.8"/>
		<circle class="st2" cx="1466.5" cy="358.2" r="5.8"/>
		<circle class="st2" cx="1495.5" cy="358.2" r="5.8"/>
		<circle class="st2" cx="1524.6" cy="358.2" r="5.8"/>
		<circle class="st2" cx="1553.6" cy="358.2" r="5.8"/>
		<circle class="st2" cx="1582.7" cy="358.2" r="5.8"/>
		<circle class="st2" cx="914.6" cy="387.2" r="5.8"/>
		<circle class="st2" cx="943.6" cy="387.2" r="5.8"/>
		<circle class="st2" cx="972.6" cy="387.2" r="5.8"/>
		<circle class="st2" cx="1001.7" cy="387.2" r="5.8"/>
		<circle class="st2" cx="1030.7" cy="387.2" r="5.8"/>
		<circle class="st2" cx="1059.8" cy="387.2" r="5.8"/>
		<circle class="st2" cx="1088.8" cy="387.2" r="5.8"/>
		<circle class="st2" cx="1117.9" cy="387.2" r="5.8"/>
		<circle class="st2" cx="1146.9" cy="387.2" r="5.8"/>
		<circle class="st2" cx="1176" cy="387.2" r="5.8"/>
		<circle class="st2" cx="1205" cy="387.2" r="5.8"/>
		<circle class="st2" cx="1234.1" cy="387.2" r="5.8"/>
		<circle class="st2" cx="1263.1" cy="387.2" r="5.8"/>
		<circle class="st2" cx="1292.2" cy="387.2" r="5.8"/>
		<circle class="st2" cx="1321.2" cy="387.2" r="5.8"/>
		<circle class="st2" cx="1350.3" cy="387.2" r="5.8"/>
		<circle class="st2" cx="1379.3" cy="387.2" r="5.8"/>
		<circle class="st2" cx="1408.4" cy="387.2" r="5.8"/>
		<circle class="st2" cx="1437.4" cy="387.2" r="5.8"/>
		<circle class="st2" cx="1466.5" cy="387.2" r="5.8"/>
		<circle class="st2" cx="1495.5" cy="387.2" r="5.8"/>
		<circle class="st2" cx="1524.6" cy="387.2" r="5.8"/>
		<circle class="st2" cx="1553.6" cy="387.2" r="5.8"/>
		<circle class="st2" cx="1582.7" cy="387.2" r="5.8"/>
		<circle class="st2" cx="914.6" cy="416.3" r="5.8"/>
		<circle class="st2" cx="943.6" cy="416.3" r="5.8"/>
		<circle class="st2" cx="972.6" cy="416.3" r="5.8"/>
		<circle class="st2" cx="1001.7" cy="416.3" r="5.8"/>
		<circle class="st2" cx="1030.7" cy="416.3" r="5.8"/>
		<circle class="st2" cx="1059.8" cy="416.3" r="5.8"/>
		<circle class="st2" cx="1088.8" cy="416.3" r="5.8"/>
		<circle class="st2" cx="1117.9" cy="416.3" r="5.8"/>
		<circle class="st2" cx="1146.9" cy="416.3" r="5.8"/>
		<circle class="st2" cx="1176" cy="416.3" r="5.8"/>
		<circle class="st2" cx="1205" cy="416.3" r="5.8"/>
		<circle class="st2" cx="1234.1" cy="416.3" r="5.8"/>
		<circle class="st2" cx="1263.1" cy="416.3" r="5.8"/>
		<circle class="st2" cx="1292.2" cy="416.3" r="5.8"/>
		<circle class="st2" cx="1321.2" cy="416.3" r="5.8"/>
		<circle class="st2" cx="1350.3" cy="416.3" r="5.8"/>
		<circle class="st2" cx="1379.3" cy="416.3" r="5.8"/>
		<circle class="st2" cx="1408.4" cy="416.3" r="5.8"/>
		<circle class="st2" cx="1437.4" cy="416.3" r="5.8"/>
		<circle class="st2" cx="1466.5" cy="416.3" r="5.8"/>
		<circle class="st2" cx="1495.5" cy="416.3" r="5.8"/>
		<circle class="st2" cx="1524.6" cy="416.3" r="5.8"/>
		<circle class="st2" cx="1553.6" cy="416.3" r="5.8"/>
		<circle class="st2" cx="1582.7" cy="416.3" r="5.8"/>
		<circle class="st2" cx="914.6" cy="445.3" r="5.8"/>
		<circle class="st2" cx="943.6" cy="445.3" r="5.8"/>
		<circle class="st2" cx="972.6" cy="445.3" r="5.8"/>
		<circle class="st2" cx="1001.7" cy="445.3" r="5.8"/>
		<circle class="st2" cx="1030.7" cy="445.3" r="5.8"/>
		<circle class="st2" cx="1059.8" cy="445.3" r="5.8"/>
		<circle class="st2" cx="1088.8" cy="445.3" r="5.8"/>
		<circle class="st2" cx="1117.9" cy="445.3" r="5.8"/>
		<circle class="st2" cx="1146.9" cy="445.3" r="5.8"/>
		<circle class="st2" cx="1176" cy="445.3" r="5.8"/>
		<circle class="st2" cx="1205" cy="445.3" r="5.8"/>
		<circle class="st2" cx="1234.1" cy="445.3" r="5.8"/>
		<circle class="st2" cx="1263.1" cy="445.3" r="5.8"/>
		<circle class="st2" cx="1292.2" cy="445.3" r="5.8"/>
		<circle class="st2" cx="1321.2" cy="445.3" r="5.8"/>
		<circle class="st2" cx="1350.3" cy="445.3" r="5.8"/>
		<circle class="st2" cx="1379.3" cy="445.3" r="5.8"/>
		<circle class="st2" cx="1408.4" cy="445.3" r="5.8"/>
		<circle class="st2" cx="1437.4" cy="445.3" r="5.8"/>
		<circle class="st2" cx="1466.5" cy="445.3" r="5.8"/>
		<circle class="st2" cx="1495.5" cy="445.3" r="5.8"/>
		<circle class="st2" cx="1524.6" cy="445.3" r="5.8"/>
		<circle class="st2" cx="1553.6" cy="445.3" r="5.8"/>
		<circle class="st2" cx="1582.7" cy="445.3" r="5.8"/>
		<circle class="st2" cx="914.6" cy="474.4" r="5.8"/>
		<circle class="st2" cx="943.6" cy="474.4" r="5.8"/>
		<circle class="st2" cx="972.6" cy="474.4" r="5.8"/>
		<circle class="st2" cx="1001.7" cy="474.4" r="5.8"/>
		<circle class="st2" cx="1030.7" cy="474.4" r="5.8"/>
		<circle class="st2" cx="1059.8" cy="474.4" r="5.8"/>
		<circle class="st2" cx="1088.8" cy="474.4" r="5.8"/>
		<circle class="st2" cx="1117.9" cy="474.4" r="5.8"/>
		<circle class="st2" cx="1146.9" cy="474.4" r="5.8"/>
		<circle class="st2" cx="1176" cy="474.4" r="5.8"/>
		<circle class="st2" cx="1205" cy="474.4" r="5.8"/>
		<circle class="st2" cx="1234.1" cy="474.4" r="5.8"/>
		<circle class="st2" cx="1263.1" cy="474.4" r="5.8"/>
		<circle class="st2" cx="1292.2" cy="474.4" r="5.8"/>
		<circle class="st2" cx="1321.2" cy="474.4" r="5.8"/>
		<circle class="st2" cx="1350.3" cy="474.4" r="5.8"/>
		<circle class="st2" cx="1379.3" cy="474.4" r="5.8"/>
		<circle class="st2" cx="1408.4" cy="474.4" r="5.8"/>
		<circle class="st2" cx="1437.4" cy="474.4" r="5.8"/>
		<circle class="st2" cx="1466.5" cy="474.4" r="5.8"/>
		<circle class="st2" cx="1495.5" cy="474.4" r="5.8"/>
		<circle class="st2" cx="1524.6" cy="474.4" r="5.8"/>
		<circle class="st2" cx="1553.6" cy="474.4" r="5.8"/>
		<circle class="st2" cx="1582.7" cy="474.4" r="5.8"/>
		<circle class="st2" cx="914.6" cy="503.4" r="5.8"/>
		<circle class="st2" cx="943.6" cy="503.4" r="5.8"/>
		<circle class="st2" cx="972.6" cy="503.4" r="5.8"/>
		<circle class="st2" cx="1001.7" cy="503.4" r="5.8"/>
		<circle class="st2" cx="1030.7" cy="503.4" r="5.8"/>
		<circle class="st2" cx="1059.8" cy="503.4" r="5.8"/>
		<circle class="st2" cx="1088.8" cy="503.4" r="5.8"/>
		<circle class="st2" cx="1117.9" cy="503.4" r="5.8"/>
		<circle class="st2" cx="1146.9" cy="503.4" r="5.8"/>
		<circle class="st2" cx="1176" cy="503.4" r="5.8"/>
		<circle class="st2" cx="1205" cy="503.4" r="5.8"/>
		<circle class="st2" cx="1234.1" cy="503.4" r="5.8"/>
		<circle class="st2" cx="1263.1" cy="503.4" r="5.8"/>
		<circle class="st2" cx="1292.2" cy="503.4" r="5.8"/>
		<circle class="st2" cx="1321.2" cy="503.4" r="5.8"/>
		<circle class="st2" cx="1350.3" cy="503.4" r="5.8"/>
		<circle class="st2" cx="1379.3" cy="503.4" r="5.8"/>
		<circle class="st2" cx="1408.4" cy="503.4" r="5.8"/>
		<circle class="st2" cx="1437.4" cy="503.4" r="5.8"/>
		<circle class="st2" cx="1466.5" cy="503.4" r="5.8"/>
		<circle class="st2" cx="1495.5" cy="503.4" r="5.8"/>
		<circle class="st2" cx="1524.6" cy="503.4" r="5.8"/>
		<circle class="st2" cx="1553.6" cy="503.4" r="5.8"/>
		<circle class="st2" cx="1582.7" cy="503.4" r="5.8"/>
		<circle class="st2" cx="914.6" cy="532.5" r="5.8"/>
		<circle class="st2" cx="943.6" cy="532.5" r="5.8"/>
		<circle class="st2" cx="972.6" cy="532.5" r="5.8"/>
		<circle class="st2" cx="1001.7" cy="532.5" r="5.8"/>
		<circle class="st2" cx="1030.7" cy="532.5" r="5.8"/>
		<circle class="st2" cx="1059.8" cy="532.5" r="5.8"/>
		<circle class="st2" cx="1088.8" cy="532.5" r="5.8"/>
		<circle class="st2" cx="1117.9" cy="532.5" r="5.8"/>
		<circle class="st2" cx="1146.9" cy="532.5" r="5.8"/>
		<circle class="st2" cx="1176" cy="532.5" r="5.8"/>
		<circle class="st2" cx="1205" cy="532.5" r="5.8"/>
		<circle class="st2" cx="1234.1" cy="532.5" r="5.8"/>
		<circle class="st2" cx="1263.1" cy="532.5" r="5.8"/>
		<circle class="st2" cx="1292.2" cy="532.5" r="5.8"/>
		<circle class="st2" cx="1321.2" cy="532.5" r="5.8"/>
		<circle class="st2" cx="1350.3" cy="532.5" r="5.8"/>
		<circle class="st2" cx="1379.3" cy="532.5" r="5.8"/>
		<circle class="st2" cx="1408.4" cy="532.5" r="5.8"/>
		<circle class="st2" cx="1437.4" cy="532.5" r="5.8"/>
		<circle class="st2" cx="1466.5" cy="532.5" r="5.8"/>
		<circle class="st2" cx="1495.5" cy="532.5" r="5.8"/>
		<circle class="st2" cx="1524.6" cy="532.5" r="5.8"/>
		<circle class="st2" cx="1553.6" cy="532.5" r="5.8"/>
		<circle class="st2" cx="1582.7" cy="532.5" r="5.8"/>
		<circle class="st2" cx="914.6" cy="561.5" r="5.8"/>
		<circle class="st2" cx="943.6" cy="561.5" r="5.8"/>
		<circle class="st2" cx="972.6" cy="561.5" r="5.8"/>
		<circle class="st2" cx="1001.7" cy="561.5" r="5.8"/>
		<circle class="st2" cx="1030.7" cy="561.5" r="5.8"/>
		<circle class="st2" cx="1059.8" cy="561.5" r="5.8"/>
		<circle class="st2" cx="1088.8" cy="561.5" r="5.8"/>
		<circle class="st2" cx="1117.9" cy="561.5" r="5.8"/>
		<circle class="st2" cx="1146.9" cy="561.5" r="5.8"/>
		<circle class="st2" cx="1176" cy="561.5" r="5.8"/>
		<circle class="st2" cx="1205" cy="561.5" r="5.8"/>
		<circle class="st2" cx="1234.1" cy="561.5" r="5.8"/>
		<circle class="st2" cx="1263.1" cy="561.5" r="5.8"/>
		<circle class="st2" cx="1292.2" cy="561.5" r="5.8"/>
		<circle class="st2" cx="1321.2" cy="561.5" r="5.8"/>
		<circle class="st2" cx="1350.3" cy="561.5" r="5.8"/>
		<circle class="st2" cx="1379.3" cy="561.5" r="5.8"/>
		<circle class="st2" cx="1408.4" cy="561.5" r="5.8"/>
		<circle class="st2" cx="1437.4" cy="561.5" r="5.8"/>
		<circle class="st2" cx="1466.5" cy="561.5" r="5.8"/>
		<circle class="st2" cx="1495.5" cy="561.5" r="5.8"/>
		<circle class="st2" cx="1524.6" cy="561.5" r="5.8"/>
		<circle class="st2" cx="1553.6" cy="561.5" r="5.8"/>
		<circle class="st2" cx="1582.7" cy="561.5" r="5.8"/>
		<circle class="st2" cx="914.6" cy="590.6" r="5.8"/>
		<circle class="st2" cx="943.6" cy="590.6" r="5.8"/>
		<circle class="st2" cx="972.6" cy="590.6" r="5.8"/>
		<circle class="st2" cx="1001.7" cy="590.6" r="5.8"/>
		<circle class="st2" cx="1030.7" cy="590.6" r="5.8"/>
		<circle class="st2" cx="1059.8" cy="590.6" r="5.8"/>
		<circle class="st2" cx="1088.8" cy="590.6" r="5.8"/>
		<circle class="st2" cx="1117.9" cy="590.6" r="5.8"/>
		<circle class="st2" cx="1146.9" cy="590.6" r="5.8"/>
		<circle class="st2" cx="1176" cy="590.6" r="5.8"/>
		<circle class="st2" cx="1205" cy="590.6" r="5.8"/>
		<circle class="st2" cx="1234.1" cy="590.6" r="5.8"/>
		<circle class="st2" cx="1263.1" cy="590.6" r="5.8"/>
		<circle class="st2" cx="1292.2" cy="590.6" r="5.8"/>
		<circle class="st2" cx="1321.2" cy="590.6" r="5.8"/>
		<circle class="st2" cx="1350.3" cy="590.6" r="5.8"/>
		<circle class="st2" cx="1379.3" cy="590.6" r="5.8"/>
		<circle class="st2" cx="1408.4" cy="590.6" r="5.8"/>
		<circle class="st2" cx="1437.4" cy="590.6" r="5.8"/>
		<circle class="st2" cx="1466.5" cy="590.6" r="5.8"/>
		<circle class="st2" cx="1495.5" cy="590.6" r="5.8"/>
		<circle class="st2" cx="1524.6" cy="590.6" r="5.8"/>
		<circle class="st2" cx="1553.6" cy="590.6" r="5.8"/>
		<circle class="st2" cx="1582.7" cy="590.6" r="5.8"/>
		<circle class="st2" cx="914.6" cy="619.6" r="5.8"/>
		<circle class="st2" cx="943.6" cy="619.6" r="5.8"/>
		<circle class="st2" cx="972.6" cy="619.6" r="5.8"/>
		<circle class="st2" cx="1001.7" cy="619.6" r="5.8"/>
		<circle class="st2" cx="1030.7" cy="619.6" r="5.8"/>
		<circle class="st2" cx="1059.8" cy="619.6" r="5.8"/>
		<circle class="st2" cx="1088.8" cy="619.6" r="5.8"/>
		<circle class="st2" cx="1117.9" cy="619.6" r="5.8"/>
		<circle class="st2" cx="1146.9" cy="619.6" r="5.8"/>
		<circle class="st2" cx="1176" cy="619.6" r="5.8"/>
		<circle class="st2" cx="1205" cy="619.6" r="5.8"/>
		<circle class="st2" cx="1234.1" cy="619.6" r="5.8"/>
		<circle class="st2" cx="1263.1" cy="619.6" r="5.8"/>
		<circle class="st2" cx="1292.2" cy="619.6" r="5.8"/>
		<circle class="st2" cx="1321.2" cy="619.6" r="5.8"/>
		<circle class="st2" cx="1350.3" cy="619.6" r="5.8"/>
		<circle class="st2" cx="1379.3" cy="619.6" r="5.8"/>
		<circle class="st2" cx="1408.4" cy="619.6" r="5.8"/>
		<circle class="st2" cx="1437.4" cy="619.6" r="5.8"/>
		<circle class="st2" cx="1466.5" cy="619.6" r="5.8"/>
		<circle class="st2" cx="1495.5" cy="619.6" r="5.8"/>
		<circle class="st2" cx="1524.6" cy="619.6" r="5.8"/>
		<circle class="st2" cx="1553.6" cy="619.6" r="5.8"/>
		<circle class="st2" cx="1582.7" cy="619.6" r="5.8"/>
	</g>
</g>
</svg>
