<?xml version="1.0" encoding="utf-8"?>
<svg version="1.1" id="flatnotch" xmlns="http://www.w3.org/2000/svg" xmlns:xlink="http://www.w3.org/1999/xlink" x="0px" y="0px"
	 viewBox="0 0 800 300" style="enable-background:new 0 0 800 300;" xml:space="preserve">
<style type="text/css">
	.st0{fill:#FFFFFF;stroke:#000000;stroke-width:2;stroke-miterlimit:10;}
	.st1{fill:none;stroke:#000000;stroke-miterlimit:10;stroke-dasharray:5.0091,3.0055;}
	.st2{fill:none;stroke:#000000;stroke-width:2;stroke-miterlimit:10;}
	.st3{fill:none;stroke:#000000;stroke-width:2;stroke-miterlimit:10;stroke-dasharray:10.0976,3.0293;}
	.st4{fill:none;stroke:#000000;stroke-miterlimit:10;}
	.st5{fill:#FFFFFF;stroke:#000000;stroke-miterlimit:10;}
	.st6{fill:none;}
	.st7{fill:none;stroke:#000000;stroke-width:0.5;stroke-miterlimit:10;}
	.st8{font-family:'Arial';}
	.st9{font-size:12px;}
	.st10{fill:#FFFFFF;}
</style>
<path class="st0" d="M140.2,270.11c-40.64-25.1-67.73-70.05-67.73-121.33c0-78.7,63.8-142.5,142.5-142.5s142.5,63.8,142.5,142.5
	c0,51.27-27.08,96.22-67.71,121.32"/>
<g>
	<circle class="st1" cx="214.97" cy="148.78" r="125"/>
</g>
<g>
	<g>
		<path class="st2" d="M289.76,270.1c-1.42,0.87-2.85,1.73-4.3,2.55"/>
		<path class="st3" d="M282.82,274.12c-20.17,10.94-43.29,17.16-67.85,17.16c-25.09,0-48.67-6.49-69.15-17.87"/>
		<path class="st2" d="M144.48,272.66c-1.45-0.83-2.88-1.68-4.3-2.55"/>
	</g>
</g>
<line class="st2" x1="133.36" y1="265.73" x2="296.67" y2="265.73"/>
<line class="st4" x1="199.1" y1="148.78" x2="231.46" y2="148.78"/>
<line class="st4" x1="215.27" y1="164.95" x2="215.27" y2="132.61"/>
<line class="st4" x1="214.97" y1="6.28" x2="11.8" y2="6.28"/>
<polyline class="st5" points="11.8,291.28 214.96,292.28 326.4,292.28 "/>
<g>
	<line class="st6" x1="32.14" y1="6.28" x2="32.14" y2="291.28"/>
	<g>
		<line class="st7" x1="32.14" y1="9.81" x2="32.14" y2="287.75"/>
		<g>
			<polygon points="32.14,6.28 30.11,11.25 32.14,10.07 34.18,11.25 			"/>
		</g>
		<g>
			<polygon points="32.14,291.28 30.11,286.31 32.14,287.49 34.18,286.31 			"/>
		</g>
	</g>
</g>
<text transform="matrix(6.123234e-17 -1 1 6.123234e-17 28.4034 169.833)" class="st8 st9">DIAMETER</text>
<line class="st4" x1="295.8" y1="265.73" x2="326.4" y2="265.73"/>
<g>
	<line class="st6" x1="317.02" y1="265.73" x2="317.02" y2="291.28"/>
	<g>
		<line class="st7" x1="317.02" y1="268.74" x2="317.02" y2="288.26"/>
		<g>
			<path d="M317.02,265.73c-0.53,1.42-1.43,3.18-2.38,4.27l2.38-0.86l2.38,0.86C318.45,268.91,317.54,267.15,317.02,265.73z"/>
		</g>
		<g>
			<path d="M317.02,291.28c-0.53-1.42-1.43-3.18-2.38-4.27l2.38,0.86l2.38-0.86C318.45,288.1,317.54,289.86,317.02,291.28z"/>
		</g>
	</g>
</g>
<text transform="matrix(1 0 0 1 326.4094 283.171)" class="st8 st9">FLAT</text>
<g>
	<line class="st6" x1="326.4" y1="205.47" x2="306.85" y2="195.49"/>
	<g>
		<line class="st7" x1="323.27" y1="203.86" x2="306.85" y2="195.49"/>
		<g>
			<polygon points="326.4,205.47 322.9,201.4 323.02,203.74 321.05,205.02 			"/>
		</g>
	</g>
</g>
<g>
	<line class="st6" x1="342.04" y1="213.34" x2="360.33" y2="222.65"/>
	<g>
		<line class="st7" x1="345.2" y1="214.94" x2="360.33" y2="222.65"/>
		<g>
			<polygon points="342.04,213.34 345.55,217.41 345.42,215.06 347.4,213.79 			"/>
		</g>
	</g>
</g>
<text transform="matrix(1 0 0 1 367.1484 229.3884)" class="st8 st9">MARGIN</text>
<text transform="matrix(1 0 0 1 226.4967 138.195)" class="st8 st9">CENTER</text>
<path class="st0" d="M590.54,7.39c71.95,0,131.45,53.33,141.12,122.62c0.91,6.5-11.8,13.16-11.8,19.9
	c0,7.16,12.65,14.17,11.63,21.05c-10.18,68.71-69.41,121.43-140.95,121.43c-78.7,0-142.5-63.8-142.5-142.5S511.84,7.39,590.54,7.39z
	"/>
<g>
	<line class="st10" x1="719.87" y1="149.91" x2="733.96" y2="150"/>
	<g>
		<line class="st7" x1="723.4" y1="149.93" x2="733.96" y2="150"/>
		<g>
			<polygon points="719.87,149.91 724.83,151.98 723.66,149.94 724.86,147.91 			"/>
		</g>
	</g>
</g>
<text transform="matrix(1 0 0 1 662.3658 154.1271)" class="st8 st9">NOTCH</text>
<line class="st4" x1="573.7" y1="150" x2="606.05" y2="150"/>
<line class="st4" x1="589.87" y1="166.17" x2="589.87" y2="133.83"/>
<g>
	<circle class="st1" cx="589.88" cy="150" r="125"/>
</g>
<text transform="matrix(1 0 0 1 546.9138 200.4802)" class="st8 st9">Orientation: Right</text>
<text transform="matrix(1 0 0 1 166.9573 203.4352)" class="st8 st9">Orientation: Bottom</text>
</svg>
