<?xml version="1.0" encoding="utf-8"?>
<svg version="1.1" id="maprc" xmlns="http://www.w3.org/2000/svg" xmlns:xlink="http://www.w3.org/1999/xlink" x="0px" y="0px"
	 viewBox="0 0 705.04 354.17" style="enable-background:new 0 0 705.04 354.17;" xml:space="preserve">
<style type="text/css">
	.st0{fill:none;stroke:#000000;stroke-width:0.5;stroke-miterlimit:10;}
	.st1{fill:#FFFF00;stroke:#000000;stroke-width:0.5;stroke-miterlimit:10;}
	.st2{fill:#00FF00;stroke:#000000;stroke-width:0.5;stroke-miterlimit:10;}
	.st3{fill:none;stroke:#666666;stroke-width:2;stroke-miterlimit:10;}
	.st4{fill:none;stroke:#000000;stroke-width:2;stroke-miterlimit:10;}
	.st5{fill:none;stroke:#000000;stroke-miterlimit:10;}
	.st6{font-family:'ArialMT';}
	.st7{font-size:12px;}
	.st8{fill:#FFFFFF;}
	.st9{enable-background:new    ;}
	.st10{font-size:10px;}
	.st11{fill:#FF0000;}
</style>
<rect x="55.02" y="53.75" class="st0" width="17.33" height="17.33"/>
<rect x="72.35" y="53.75" class="st0" width="17.33" height="17.33"/>
<rect x="89.69" y="53.75" class="st0" width="17.33" height="17.33"/>
<rect x="107.02" y="53.75" class="st0" width="17.33" height="17.33"/>
<rect x="124.35" y="53.75" class="st0" width="17.33" height="17.33"/>
<rect x="141.69" y="53.75" class="st1" width="17.33" height="17.33"/>
<rect x="159.02" y="53.75" class="st1" width="17.33" height="17.33"/>
<rect x="176.35" y="53.75" class="st1" width="17.33" height="17.33"/>
<rect x="193.69" y="53.75" class="st1" width="17.33" height="17.33"/>
<rect x="211.02" y="53.75" class="st1" width="17.33" height="17.33"/>
<rect x="228.35" y="53.75" class="st0" width="17.33" height="17.33"/>
<rect x="245.69" y="53.75" class="st0" width="17.33" height="17.33"/>
<rect x="263.02" y="53.75" class="st0" width="17.33" height="17.33"/>
<rect x="280.35" y="53.75" class="st0" width="17.33" height="17.33"/>
<rect x="297.69" y="53.75" class="st0" width="17.33" height="17.33"/>
<rect x="55.02" y="71.08" class="st0" width="17.33" height="17.33"/>
<rect x="72.35" y="71.08" class="st0" width="17.33" height="17.33"/>
<rect x="89.69" y="71.08" class="st0" width="17.33" height="17.33"/>
<rect x="107.02" y="71.08" class="st1" width="17.33" height="17.33"/>
<rect x="124.35" y="71.08" class="st1" width="17.33" height="17.33"/>
<rect x="141.69" y="71.08" class="st2" width="17.33" height="17.33"/>
<rect x="159.02" y="71.08" class="st2" width="17.33" height="17.33"/>
<rect x="176.35" y="71.08" class="st2" width="17.33" height="17.33"/>
<rect x="193.69" y="71.08" class="st2" width="17.33" height="17.33"/>
<rect x="211.02" y="71.08" class="st2" width="17.33" height="17.33"/>
<rect x="228.35" y="71.08" class="st1" width="17.33" height="17.33"/>
<rect x="245.69" y="71.08" class="st1" width="17.33" height="17.33"/>
<rect x="263.02" y="71.08" class="st0" width="17.33" height="17.33"/>
<rect x="280.35" y="71.08" class="st0" width="17.33" height="17.33"/>
<rect x="297.69" y="71.08" class="st0" width="17.33" height="17.33"/>
<rect x="55.02" y="88.41" class="st0" width="17.33" height="17.33"/>
<rect x="72.35" y="88.41" class="st0" width="17.33" height="17.33"/>
<rect x="89.69" y="88.41" class="st1" width="17.33" height="17.33"/>
<rect x="107.02" y="88.41" class="st1" width="17.33" height="17.33"/>
<rect x="124.35" y="88.41" class="st2" width="17.33" height="17.33"/>
<rect x="141.69" y="88.41" class="st2" width="17.33" height="17.33"/>
<rect x="159.02" y="88.41" class="st2" width="17.33" height="17.33"/>
<rect x="176.35" y="88.41" class="st2" width="17.33" height="17.33"/>
<rect x="193.69" y="88.41" class="st2" width="17.33" height="17.33"/>
<rect x="211.02" y="88.41" class="st2" width="17.33" height="17.33"/>
<rect x="228.35" y="88.41" class="st2" width="17.33" height="17.33"/>
<rect x="245.69" y="88.41" class="st1" width="17.33" height="17.33"/>
<rect x="263.02" y="88.41" class="st1" width="17.33" height="17.33"/>
<rect x="280.35" y="88.41" class="st0" width="17.33" height="17.33"/>
<rect x="297.69" y="88.41" class="st0" width="17.33" height="17.33"/>
<rect x="55.02" y="105.75" class="st0" width="17.33" height="17.33"/>
<rect x="72.35" y="105.75" class="st1" width="17.33" height="17.33"/>
<rect x="89.69" y="105.75" class="st1" width="17.33" height="17.33"/>
<rect x="107.02" y="105.75" class="st2" width="17.33" height="17.33"/>
<rect x="124.35" y="105.75" class="st2" width="17.33" height="17.33"/>
<rect x="141.69" y="105.75" class="st2" width="17.33" height="17.33"/>
<rect x="159.02" y="105.75" class="st2" width="17.33" height="17.33"/>
<rect x="176.35" y="105.75" class="st2" width="17.33" height="17.33"/>
<rect x="193.69" y="105.75" class="st2" width="17.33" height="17.33"/>
<rect x="211.02" y="105.75" class="st2" width="17.33" height="17.33"/>
<rect x="228.35" y="105.75" class="st2" width="17.33" height="17.33"/>
<rect x="245.69" y="105.75" class="st2" width="17.33" height="17.33"/>
<rect x="263.02" y="105.75" class="st1" width="17.33" height="17.33"/>
<rect x="280.35" y="105.75" class="st1" width="17.33" height="17.33"/>
<rect x="297.69" y="105.75" class="st0" width="17.33" height="17.33"/>
<rect x="55.02" y="123.08" class="st0" width="17.33" height="17.33"/>
<rect x="72.35" y="123.08" class="st1" width="17.33" height="17.33"/>
<rect x="89.69" y="123.08" class="st2" width="17.33" height="17.33"/>
<rect x="107.02" y="123.08" class="st2" width="17.33" height="17.33"/>
<rect x="124.35" y="123.08" class="st2" width="17.33" height="17.33"/>
<rect x="141.69" y="123.08" class="st2" width="17.33" height="17.33"/>
<rect x="159.02" y="123.08" class="st2" width="17.33" height="17.33"/>
<rect x="176.35" y="123.08" class="st2" width="17.33" height="17.33"/>
<rect x="193.69" y="123.08" class="st2" width="17.33" height="17.33"/>
<rect x="211.02" y="123.08" class="st2" width="17.33" height="17.33"/>
<rect x="228.35" y="123.08" class="st2" width="17.33" height="17.33"/>
<rect x="245.69" y="123.08" class="st2" width="17.33" height="17.33"/>
<rect x="263.02" y="123.08" class="st2" width="17.33" height="17.33"/>
<rect x="280.35" y="123.08" class="st1" width="17.33" height="17.33"/>
<rect x="297.69" y="123.08" class="st0" width="17.33" height="17.33"/>
<rect x="55.02" y="140.41" class="st1" width="17.33" height="17.33"/>
<rect x="72.35" y="140.41" class="st2" width="17.33" height="17.33"/>
<rect x="89.69" y="140.41" class="st2" width="17.33" height="17.33"/>
<rect x="107.02" y="140.41" class="st2" width="17.33" height="17.33"/>
<rect x="124.35" y="140.41" class="st2" width="17.33" height="17.33"/>
<rect x="141.69" y="140.41" class="st2" width="17.33" height="17.33"/>
<rect x="159.02" y="140.41" class="st2" width="17.33" height="17.33"/>
<rect x="176.35" y="140.41" class="st2" width="17.33" height="17.33"/>
<rect x="193.69" y="140.41" class="st2" width="17.33" height="17.33"/>
<rect x="211.02" y="140.41" class="st2" width="17.33" height="17.33"/>
<rect x="228.35" y="140.41" class="st2" width="17.33" height="17.33"/>
<rect x="245.69" y="140.41" class="st2" width="17.33" height="17.33"/>
<rect x="263.02" y="140.41" class="st2" width="17.33" height="17.33"/>
<rect x="280.35" y="140.41" class="st2" width="17.33" height="17.33"/>
<rect x="297.69" y="140.41" class="st1" width="17.33" height="17.33"/>
<rect x="55.02" y="157.75" class="st1" width="17.33" height="17.33"/>
<rect x="72.35" y="157.75" class="st2" width="17.33" height="17.33"/>
<rect x="89.69" y="157.75" class="st2" width="17.33" height="17.33"/>
<rect x="107.02" y="157.75" class="st2" width="17.33" height="17.33"/>
<rect x="124.35" y="157.75" class="st2" width="17.33" height="17.33"/>
<rect x="141.69" y="157.75" class="st2" width="17.33" height="17.33"/>
<rect x="159.02" y="157.75" class="st2" width="17.33" height="17.33"/>
<rect x="176.35" y="157.75" class="st2" width="17.33" height="17.33"/>
<rect x="193.69" y="157.75" class="st2" width="17.33" height="17.33"/>
<rect x="211.02" y="157.75" class="st2" width="17.33" height="17.33"/>
<rect x="228.35" y="157.75" class="st2" width="17.33" height="17.33"/>
<rect x="245.69" y="157.75" class="st2" width="17.33" height="17.33"/>
<rect x="263.02" y="157.75" class="st2" width="17.33" height="17.33"/>
<rect x="280.35" y="157.75" class="st2" width="17.33" height="17.33"/>
<rect x="297.69" y="157.75" class="st1" width="17.33" height="17.33"/>
<rect x="55.02" y="175.08" class="st1" width="17.33" height="17.33"/>
<rect x="72.35" y="175.08" class="st2" width="17.33" height="17.33"/>
<rect x="89.69" y="175.08" class="st2" width="17.33" height="17.33"/>
<rect x="107.02" y="175.08" class="st2" width="17.33" height="17.33"/>
<rect x="124.35" y="175.08" class="st2" width="17.33" height="17.33"/>
<rect x="141.69" y="175.08" class="st2" width="17.33" height="17.33"/>
<rect x="159.02" y="175.08" class="st2" width="17.33" height="17.33"/>
<rect x="176.35" y="175.08" class="st2" width="17.33" height="17.33"/>
<rect x="193.69" y="175.08" class="st2" width="17.33" height="17.33"/>
<rect x="211.02" y="175.08" class="st2" width="17.33" height="17.33"/>
<rect x="228.35" y="175.08" class="st2" width="17.33" height="17.33"/>
<rect x="245.69" y="175.08" class="st2" width="17.33" height="17.33"/>
<rect x="263.02" y="175.08" class="st2" width="17.33" height="17.33"/>
<rect x="280.35" y="175.08" class="st2" width="17.33" height="17.33"/>
<rect x="297.69" y="175.08" class="st1" width="17.33" height="17.33"/>
<rect x="55.02" y="192.41" class="st1" width="17.33" height="17.33"/>
<rect x="72.35" y="192.41" class="st2" width="17.33" height="17.33"/>
<rect x="89.69" y="192.41" class="st2" width="17.33" height="17.33"/>
<rect x="107.02" y="192.41" class="st2" width="17.33" height="17.33"/>
<rect x="124.35" y="192.41" class="st2" width="17.33" height="17.33"/>
<rect x="141.69" y="192.41" class="st2" width="17.33" height="17.33"/>
<rect x="159.02" y="192.41" class="st2" width="17.33" height="17.33"/>
<rect x="176.35" y="192.41" class="st2" width="17.33" height="17.33"/>
<rect x="193.69" y="192.41" class="st2" width="17.33" height="17.33"/>
<rect x="211.02" y="192.41" class="st2" width="17.33" height="17.33"/>
<rect x="228.35" y="192.41" class="st2" width="17.33" height="17.33"/>
<rect x="245.69" y="192.41" class="st2" width="17.33" height="17.33"/>
<rect x="263.02" y="192.41" class="st2" width="17.33" height="17.33"/>
<rect x="280.35" y="192.41" class="st2" width="17.33" height="17.33"/>
<rect x="297.69" y="192.41" class="st1" width="17.33" height="17.33"/>
<rect x="55.02" y="209.75" class="st1" width="17.33" height="17.33"/>
<rect x="72.35" y="209.75" class="st2" width="17.33" height="17.33"/>
<rect x="89.69" y="209.75" class="st2" width="17.33" height="17.33"/>
<rect x="107.02" y="209.75" class="st2" width="17.33" height="17.33"/>
<rect x="124.35" y="209.75" class="st2" width="17.33" height="17.33"/>
<rect x="141.69" y="209.75" class="st2" width="17.33" height="17.33"/>
<rect x="159.02" y="209.75" class="st2" width="17.33" height="17.33"/>
<rect x="176.35" y="209.75" class="st2" width="17.33" height="17.33"/>
<rect x="193.69" y="209.75" class="st2" width="17.33" height="17.33"/>
<rect x="211.02" y="209.75" class="st2" width="17.33" height="17.33"/>
<rect x="228.35" y="209.75" class="st2" width="17.33" height="17.33"/>
<rect x="245.69" y="209.75" class="st2" width="17.33" height="17.33"/>
<rect x="263.02" y="209.75" class="st2" width="17.33" height="17.33"/>
<rect x="280.35" y="209.75" class="st2" width="17.33" height="17.33"/>
<rect x="297.69" y="209.75" class="st1" width="17.33" height="17.33"/>
<rect x="55.02" y="227.08" class="st0" width="17.33" height="17.33"/>
<rect x="72.35" y="227.08" class="st1" width="17.33" height="17.33"/>
<rect x="89.69" y="227.08" class="st2" width="17.33" height="17.33"/>
<rect x="107.02" y="227.08" class="st2" width="17.33" height="17.33"/>
<rect x="124.35" y="227.08" class="st2" width="17.33" height="17.33"/>
<rect x="141.69" y="227.08" class="st2" width="17.33" height="17.33"/>
<rect x="159.02" y="227.08" class="st2" width="17.33" height="17.33"/>
<rect x="176.35" y="227.08" class="st2" width="17.33" height="17.33"/>
<rect x="193.69" y="227.08" class="st2" width="17.33" height="17.33"/>
<rect x="211.02" y="227.08" class="st0" width="17.33" height="17.33"/>
<rect x="228.35" y="227.08" class="st0" width="17.33" height="17.33"/>
<rect x="245.69" y="227.08" class="st0" width="17.33" height="17.33"/>
<rect x="263.02" y="227.08" class="st0" width="17.33" height="17.33"/>
<rect x="280.35" y="227.08" class="st1" width="17.33" height="17.33"/>
<rect x="297.69" y="227.08" class="st0" width="17.33" height="17.33"/>
<rect x="55.02" y="244.41" class="st0" width="17.33" height="17.33"/>
<rect x="72.35" y="244.41" class="st1" width="17.33" height="17.33"/>
<rect x="89.69" y="244.41" class="st1" width="17.33" height="17.33"/>
<rect x="107.02" y="244.41" class="st0" width="17.33" height="17.33"/>
<rect x="124.35" y="244.41" class="st0" width="17.33" height="17.33"/>
<rect x="141.69" y="244.41" class="st0" width="17.33" height="17.33"/>
<rect x="159.02" y="244.41" class="st0" width="17.33" height="17.33"/>
<rect x="176.35" y="244.41" class="st0" width="17.33" height="17.33"/>
<rect x="193.69" y="244.41" class="st0" width="17.33" height="17.33"/>
<rect x="211.02" y="244.41" class="st0" width="17.33" height="17.33"/>
<rect x="228.35" y="244.41" class="st0" width="17.33" height="17.33"/>
<rect x="245.69" y="244.41" class="st0" width="17.33" height="17.33"/>
<rect x="263.02" y="244.41" class="st1" width="17.33" height="17.33"/>
<rect x="280.35" y="244.41" class="st1" width="17.33" height="17.33"/>
<rect x="297.69" y="244.41" class="st0" width="17.33" height="17.33"/>
<rect x="55.02" y="261.75" class="st0" width="17.33" height="17.33"/>
<rect x="72.35" y="261.75" class="st0" width="17.33" height="17.33"/>
<rect x="89.69" y="261.75" class="st1" width="17.33" height="17.33"/>
<rect x="107.02" y="261.75" class="st1" width="17.33" height="17.33"/>
<rect x="124.35" y="261.75" class="st0" width="17.33" height="17.33"/>
<rect x="141.69" y="261.75" class="st0" width="17.33" height="17.33"/>
<rect x="159.02" y="261.75" class="st0" width="17.33" height="17.33"/>
<rect x="176.35" y="261.75" class="st0" width="17.33" height="17.33"/>
<rect x="193.69" y="261.75" class="st0" width="17.33" height="17.33"/>
<rect x="211.02" y="261.75" class="st0" width="17.33" height="17.33"/>
<rect x="228.35" y="261.75" class="st0" width="17.33" height="17.33"/>
<rect x="245.69" y="261.75" class="st1" width="17.33" height="17.33"/>
<rect x="263.02" y="261.75" class="st1" width="17.33" height="17.33"/>
<rect x="280.35" y="261.75" class="st0" width="17.33" height="17.33"/>
<rect x="297.69" y="261.75" class="st0" width="17.33" height="17.33"/>
<rect x="55.02" y="279.08" class="st0" width="17.33" height="17.33"/>
<rect x="72.35" y="279.08" class="st0" width="17.33" height="17.33"/>
<rect x="89.69" y="279.08" class="st0" width="17.33" height="17.33"/>
<rect x="107.02" y="279.08" class="st1" width="17.33" height="17.33"/>
<rect x="124.35" y="279.08" class="st1" width="17.33" height="17.33"/>
<rect x="141.69" y="279.08" class="st0" width="17.33" height="17.33"/>
<rect x="159.02" y="279.08" class="st0" width="17.33" height="17.33"/>
<rect x="176.35" y="279.08" class="st0" width="17.33" height="17.33"/>
<rect x="193.69" y="279.08" class="st0" width="17.33" height="17.33"/>
<rect x="211.02" y="279.08" class="st0" width="17.33" height="17.33"/>
<rect x="228.35" y="279.08" class="st1" width="17.33" height="17.33"/>
<rect x="245.69" y="279.08" class="st1" width="17.33" height="17.33"/>
<rect x="263.02" y="279.08" class="st0" width="17.33" height="17.33"/>
<rect x="280.35" y="279.08" class="st0" width="17.33" height="17.33"/>
<rect x="297.69" y="279.08" class="st0" width="17.33" height="17.33"/>
<rect x="55.02" y="296.41" class="st0" width="17.33" height="17.33"/>
<rect x="72.35" y="296.41" class="st0" width="17.33" height="17.33"/>
<rect x="89.69" y="296.41" class="st0" width="17.33" height="17.33"/>
<rect x="107.02" y="296.41" class="st0" width="17.33" height="17.33"/>
<rect x="124.35" y="296.41" class="st0" width="17.33" height="17.33"/>
<rect x="141.69" y="296.41" class="st1" width="17.33" height="17.33"/>
<rect x="159.02" y="296.41" class="st1" width="17.33" height="17.33"/>
<rect x="176.35" y="296.41" class="st1" width="17.33" height="17.33"/>
<rect x="193.69" y="296.41" class="st1" width="17.33" height="17.33"/>
<rect x="211.02" y="296.41" class="st1" width="17.33" height="17.33"/>
<rect x="228.35" y="296.41" class="st0" width="17.33" height="17.33"/>
<rect x="245.69" y="296.41" class="st0" width="17.33" height="17.33"/>
<rect x="263.02" y="296.41" class="st0" width="17.33" height="17.33"/>
<rect x="280.35" y="296.41" class="st0" width="17.33" height="17.33"/>
<rect x="297.69" y="296.41" class="st0" width="17.33" height="17.33"/>
<circle class="st3" cx="185.02" cy="183.75" r="120.35"/>
<g>
	<g>
		<polyline class="st4" points="336.61,183.75 185.02,183.75 185.02,330.67 		"/>
		<g>
			<polygon points="343.67,183.75 333.72,179.68 336.08,183.75 333.72,187.81 			"/>
		</g>
		<g>
			<polygon points="185.02,337.73 180.95,327.78 185.02,330.14 189.08,327.78 			"/>
		</g>
	</g>
</g>
<g>
	<g>
		<path class="st5" d="M82.67,234.01"/>
	</g>
</g>
<text transform="matrix(1 0 0 1 325.6693 171.615)" class="st6 st7">X AXIS</text>
<text transform="matrix(1 0 0 1 197.2781 333.4265)" class="st6 st7">Y AXIS</text>
<rect x="122.35" y="162.36" class="st8" width="56.6" height="34.54"/>
<text transform="matrix(1 0 0 1 130.0902 176.2672)" class="st9"><tspan x="0" y="0" class="st6 st10">CENTER</tspan><tspan x="2.77" y="12" class="st6 st10">X 0, Y 0</tspan></text>
<circle class="st11" cx="185.02" cy="183.75" r="3"/>
<rect x="215.73" y="210.94" class="st8" width="77.24" height="47.39"/>
<text transform="matrix(1 0 0 1 221.6098 225.2826)" class="st9"><tspan x="0" y="0" class="st6 st10">COLUMN = 8</tspan><tspan x="0" y="12" class="st6 st10">ROW = 10</tspan><tspan x="0" y="24" class="st6 st10">X 3.25,  Y 9.75</tspan></text>
<g>
	<g>
		<polyline class="st0" points="202.13,235.44 216.95,255.48 256.61,255.48 		"/>
		<g>
			<path d="M200.67,236.64c-0.62-0.83-0.44-2.01,0.39-2.63c0.83-0.62,2.01-0.44,2.63,0.39s0.44,2.01-0.39,2.63
				S201.29,237.47,200.67,236.64z"/>
		</g>
	</g>
</g>
<text transform="matrix(1 0 0 1 44.2991 66.5282)" class="st6 st7">0</text>
<text transform="matrix(1 0 0 1 44.2991 83.8571)" class="st6 st7">1</text>
<text transform="matrix(1 0 0 1 44.2989 101.1864)" class="st6 st7">2</text>
<text transform="matrix(1 0 0 1 44.299 118.5157)" class="st6 st7">3</text>
<text transform="matrix(1 0 0 1 44.299 135.8448)" class="st6 st7">4</text>
<text transform="matrix(1 0 0 1 44.299 153.1738)" class="st6 st7">5</text>
<text transform="matrix(1 0 0 1 44.299 170.5033)" class="st6 st7">6</text>
<text transform="matrix(1 0 0 1 44.299 187.8324)" class="st6 st7">7</text>
<text transform="matrix(1 0 0 1 44.299 205.1613)" class="st6 st7">8</text>
<text transform="matrix(1 0 0 1 44.299 222.4904)" class="st6 st7">9</text>
<text transform="matrix(1 0 0 1 37.6252 239.8193)" class="st6 st7">10</text>
<text transform="matrix(1 0 0 1 37.6252 257.1494)" class="st6 st7">11</text>
<text transform="matrix(1 0 0 1 37.6252 274.4785)" class="st6 st7">12</text>
<text transform="matrix(1 0 0 1 37.6252 291.8075)" class="st6 st7">13</text>
<text transform="matrix(1 0 0 1 37.6253 309.1368)" class="st6 st7">14</text>
<text transform="matrix(1 0 0 1 60.3465 48.46)" class="st6 st7">0</text>
<text transform="matrix(1 0 0 1 77.6802 48.4593)" class="st6 st7">1</text>
<text transform="matrix(1 0 0 1 95.0132 48.4586)" class="st6 st7">2</text>
<text transform="matrix(1 0 0 1 112.3468 48.4585)" class="st6 st7">3</text>
<text transform="matrix(1 0 0 1 129.6804 48.4588)" class="st6 st7">4</text>
<text transform="matrix(1 0 0 1 147.0134 48.4594)" class="st6 st7">5</text>
<text transform="matrix(1 0 0 1 164.3466 48.4598)" class="st6 st7">6</text>
<text transform="matrix(1 0 0 1 181.6803 48.4596)" class="st6 st7">7</text>
<text transform="matrix(1 0 0 1 199.013 48.4591)" class="st6 st7">8</text>
<text transform="matrix(1 0 0 1 216.3468 48.4602)" class="st6 st7">9</text>
<text transform="matrix(1 0 0 1 230.3431 48.4604)" class="st6 st7">10</text>
<text transform="matrix(1 0 0 1 247.4534 48.4602)" class="st6 st7">11</text>
<text transform="matrix(1 0 0 1 264.5649 48.4596)" class="st6 st7">12</text>
<text transform="matrix(1 0 0 1 282.1207 48.4598)" class="st6 st7">13</text>
<text transform="matrix(1 0 0 1 299.6764 48.4601)" class="st6 st7">14</text>
<text transform="matrix(1 0 0 1 129.6746 19.0781)" class="st6 st10">COLUMNS COUNT = 15</text>
<g>
	<g>
		<line class="st5" x1="55.51" y1="28.29" x2="314.51" y2="28.29"/>
		<g>
			<rect x="55.01" y="25.04" width="1" height="6.5"/>
		</g>
		<g>
			<rect x="314.01" y="25.04" width="1" height="6.5"/>
		</g>
	</g>
</g>
<g>
	<g>
		<line class="st5" x1="31.01" y1="54.25" x2="31.01" y2="313.25"/>
		<g>
			<rect x="27.76" y="53.75" width="6.5" height="1"/>
		</g>
		<g>
			<rect x="27.76" y="312.75" width="6.5" height="1"/>
		</g>
	</g>
</g>
<text transform="matrix(3.061617e-16 1 -1 3.061617e-16 13.4189 137.8591)" class="st6 st10">ROWS COUNT = 15</text>
<rect x="397.8" y="53.06" class="st0" width="17.33" height="17.33"/>
<rect x="415.13" y="53.06" class="st0" width="17.33" height="17.33"/>
<rect x="432.47" y="53.06" class="st0" width="17.33" height="17.33"/>
<rect x="449.8" y="53.06" class="st0" width="17.33" height="17.33"/>
<rect x="467.13" y="53.06" class="st0" width="17.33" height="17.33"/>
<rect x="484.47" y="53.06" class="st1" width="17.33" height="17.33"/>
<rect x="501.8" y="53.06" class="st1" width="17.33" height="17.33"/>
<rect x="519.13" y="53.06" class="st1" width="17.33" height="17.33"/>
<rect x="536.47" y="53.06" class="st1" width="17.33" height="17.33"/>
<rect x="553.8" y="53.06" class="st1" width="17.33" height="17.33"/>
<rect x="571.13" y="53.06" class="st0" width="17.33" height="17.33"/>
<rect x="588.47" y="53.06" class="st0" width="17.33" height="17.33"/>
<rect x="605.8" y="53.06" class="st0" width="17.33" height="17.33"/>
<rect x="623.13" y="53.06" class="st0" width="17.33" height="17.33"/>
<rect x="640.47" y="53.06" class="st0" width="17.33" height="17.33"/>
<rect x="397.8" y="70.39" class="st0" width="17.33" height="17.33"/>
<rect x="415.13" y="70.39" class="st0" width="17.33" height="17.33"/>
<rect x="432.47" y="70.39" class="st0" width="17.33" height="17.33"/>
<rect x="449.8" y="70.39" class="st1" width="17.33" height="17.33"/>
<rect x="467.13" y="70.39" class="st1" width="17.33" height="17.33"/>
<rect x="484.47" y="70.39" class="st2" width="17.33" height="17.33"/>
<rect x="501.8" y="70.39" class="st2" width="17.33" height="17.33"/>
<rect x="519.13" y="70.39" class="st2" width="17.33" height="17.33"/>
<rect x="536.47" y="70.39" class="st2" width="17.33" height="17.33"/>
<rect x="553.8" y="70.39" class="st2" width="17.33" height="17.33"/>
<rect x="571.13" y="70.39" class="st1" width="17.33" height="17.33"/>
<rect x="588.47" y="70.39" class="st1" width="17.33" height="17.33"/>
<rect x="605.8" y="70.39" class="st0" width="17.33" height="17.33"/>
<rect x="623.13" y="70.39" class="st0" width="17.33" height="17.33"/>
<rect x="640.47" y="70.39" class="st0" width="17.33" height="17.33"/>
<rect x="397.8" y="87.72" class="st0" width="17.33" height="17.33"/>
<rect x="415.13" y="87.72" class="st0" width="17.33" height="17.33"/>
<rect x="432.47" y="87.72" class="st1" width="17.33" height="17.33"/>
<rect x="449.8" y="87.72" class="st1" width="17.33" height="17.33"/>
<rect x="467.13" y="87.72" class="st2" width="17.33" height="17.33"/>
<rect x="484.47" y="87.72" class="st2" width="17.33" height="17.33"/>
<rect x="501.8" y="87.72" class="st2" width="17.33" height="17.33"/>
<rect x="519.13" y="87.72" class="st2" width="17.33" height="17.33"/>
<rect x="536.47" y="87.72" class="st2" width="17.33" height="17.33"/>
<rect x="553.8" y="87.72" class="st2" width="17.33" height="17.33"/>
<rect x="571.13" y="87.72" class="st2" width="17.33" height="17.33"/>
<rect x="588.47" y="87.72" class="st1" width="17.33" height="17.33"/>
<rect x="605.8" y="87.72" class="st1" width="17.33" height="17.33"/>
<rect x="623.13" y="87.72" class="st0" width="17.33" height="17.33"/>
<rect x="640.47" y="87.72" class="st0" width="17.33" height="17.33"/>
<rect x="397.8" y="105.06" class="st0" width="17.33" height="17.33"/>
<rect x="415.13" y="105.06" class="st1" width="17.33" height="17.33"/>
<rect x="432.47" y="105.06" class="st1" width="17.33" height="17.33"/>
<rect x="449.8" y="105.06" class="st2" width="17.33" height="17.33"/>
<rect x="467.13" y="105.06" class="st2" width="17.33" height="17.33"/>
<rect x="484.47" y="105.06" class="st2" width="17.33" height="17.33"/>
<rect x="501.8" y="105.06" class="st2" width="17.33" height="17.33"/>
<rect x="519.13" y="105.06" class="st2" width="17.33" height="17.33"/>
<rect x="536.47" y="105.06" class="st2" width="17.33" height="17.33"/>
<rect x="553.8" y="105.06" class="st2" width="17.33" height="17.33"/>
<rect x="571.13" y="105.06" class="st2" width="17.33" height="17.33"/>
<rect x="588.47" y="105.06" class="st2" width="17.33" height="17.33"/>
<rect x="605.8" y="105.06" class="st1" width="17.33" height="17.33"/>
<rect x="623.13" y="105.06" class="st1" width="17.33" height="17.33"/>
<rect x="640.47" y="105.06" class="st0" width="17.33" height="17.33"/>
<rect x="397.8" y="122.39" class="st0" width="17.33" height="17.33"/>
<rect x="415.13" y="122.39" class="st1" width="17.33" height="17.33"/>
<rect x="432.47" y="122.39" class="st2" width="17.33" height="17.33"/>
<rect x="449.8" y="122.39" class="st2" width="17.33" height="17.33"/>
<rect x="467.13" y="122.39" class="st2" width="17.33" height="17.33"/>
<rect x="484.47" y="122.39" class="st2" width="17.33" height="17.33"/>
<rect x="501.8" y="122.39" class="st2" width="17.33" height="17.33"/>
<rect x="519.13" y="122.39" class="st2" width="17.33" height="17.33"/>
<rect x="536.47" y="122.39" class="st2" width="17.33" height="17.33"/>
<rect x="553.8" y="122.39" class="st2" width="17.33" height="17.33"/>
<rect x="571.13" y="122.39" class="st2" width="17.33" height="17.33"/>
<rect x="588.47" y="122.39" class="st2" width="17.33" height="17.33"/>
<rect x="605.8" y="122.39" class="st2" width="17.33" height="17.33"/>
<rect x="623.13" y="122.39" class="st1" width="17.33" height="17.33"/>
<rect x="640.47" y="122.39" class="st0" width="17.33" height="17.33"/>
<rect x="397.8" y="139.72" class="st1" width="17.33" height="17.33"/>
<rect x="415.13" y="139.72" class="st2" width="17.33" height="17.33"/>
<rect x="432.47" y="139.72" class="st2" width="17.33" height="17.33"/>
<rect x="449.8" y="139.72" class="st2" width="17.33" height="17.33"/>
<rect x="467.13" y="139.72" class="st2" width="17.33" height="17.33"/>
<rect x="484.47" y="139.72" class="st2" width="17.33" height="17.33"/>
<rect x="501.8" y="139.72" class="st2" width="17.33" height="17.33"/>
<rect x="519.13" y="139.72" class="st2" width="17.33" height="17.33"/>
<rect x="536.47" y="139.72" class="st2" width="17.33" height="17.33"/>
<rect x="553.8" y="139.72" class="st2" width="17.33" height="17.33"/>
<rect x="571.13" y="139.72" class="st2" width="17.33" height="17.33"/>
<rect x="588.47" y="139.72" class="st2" width="17.33" height="17.33"/>
<rect x="605.8" y="139.72" class="st2" width="17.33" height="17.33"/>
<rect x="623.13" y="139.72" class="st2" width="17.33" height="17.33"/>
<rect x="640.47" y="139.72" class="st1" width="17.33" height="17.33"/>
<rect x="397.8" y="157.06" class="st1" width="17.33" height="17.33"/>
<rect x="415.13" y="157.06" class="st2" width="17.33" height="17.33"/>
<rect x="432.47" y="157.06" class="st2" width="17.33" height="17.33"/>
<rect x="449.8" y="157.06" class="st2" width="17.33" height="17.33"/>
<rect x="467.13" y="157.06" class="st2" width="17.33" height="17.33"/>
<rect x="484.47" y="157.06" class="st2" width="17.33" height="17.33"/>
<rect x="501.8" y="157.06" class="st2" width="17.33" height="17.33"/>
<rect x="519.13" y="157.06" class="st2" width="17.33" height="17.33"/>
<rect x="536.47" y="157.06" class="st2" width="17.33" height="17.33"/>
<rect x="553.8" y="157.06" class="st2" width="17.33" height="17.33"/>
<rect x="571.13" y="157.06" class="st2" width="17.33" height="17.33"/>
<rect x="588.47" y="157.06" class="st2" width="17.33" height="17.33"/>
<rect x="605.8" y="157.06" class="st2" width="17.33" height="17.33"/>
<rect x="623.13" y="157.06" class="st2" width="17.33" height="17.33"/>
<rect x="640.47" y="157.06" class="st1" width="17.33" height="17.33"/>
<rect x="397.8" y="174.39" class="st1" width="17.33" height="17.33"/>
<rect x="415.13" y="174.39" class="st2" width="17.33" height="17.33"/>
<rect x="432.47" y="174.39" class="st2" width="17.33" height="17.33"/>
<rect x="449.8" y="174.39" class="st2" width="17.33" height="17.33"/>
<rect x="467.13" y="174.39" class="st2" width="17.33" height="17.33"/>
<rect x="484.47" y="174.39" class="st2" width="17.33" height="17.33"/>
<rect x="501.8" y="174.39" class="st2" width="17.33" height="17.33"/>
<rect x="519.13" y="174.39" class="st2" width="17.33" height="17.33"/>
<rect x="536.47" y="174.39" class="st2" width="17.33" height="17.33"/>
<rect x="553.8" y="174.39" class="st2" width="17.33" height="17.33"/>
<rect x="571.13" y="174.39" class="st2" width="17.33" height="17.33"/>
<rect x="588.47" y="174.39" class="st2" width="17.33" height="17.33"/>
<rect x="605.8" y="174.39" class="st2" width="17.33" height="17.33"/>
<rect x="623.13" y="174.39" class="st2" width="17.33" height="17.33"/>
<rect x="640.47" y="174.39" class="st1" width="17.33" height="17.33"/>
<rect x="397.8" y="191.72" class="st1" width="17.33" height="17.33"/>
<rect x="415.13" y="191.72" class="st2" width="17.33" height="17.33"/>
<rect x="432.47" y="191.72" class="st2" width="17.33" height="17.33"/>
<rect x="449.8" y="191.72" class="st2" width="17.33" height="17.33"/>
<rect x="467.13" y="191.72" class="st2" width="17.33" height="17.33"/>
<rect x="484.47" y="191.72" class="st2" width="17.33" height="17.33"/>
<rect x="501.8" y="191.72" class="st2" width="17.33" height="17.33"/>
<rect x="519.13" y="191.72" class="st2" width="17.33" height="17.33"/>
<rect x="536.47" y="191.72" class="st2" width="17.33" height="17.33"/>
<rect x="553.8" y="191.72" class="st2" width="17.33" height="17.33"/>
<rect x="571.13" y="191.72" class="st2" width="17.33" height="17.33"/>
<rect x="588.47" y="191.72" class="st2" width="17.33" height="17.33"/>
<rect x="605.8" y="191.72" class="st2" width="17.33" height="17.33"/>
<rect x="623.13" y="191.72" class="st2" width="17.33" height="17.33"/>
<rect x="640.47" y="191.72" class="st1" width="17.33" height="17.33"/>
<rect x="397.8" y="209.06" class="st1" width="17.33" height="17.33"/>
<rect x="415.13" y="209.06" class="st2" width="17.33" height="17.33"/>
<rect x="432.47" y="209.06" class="st2" width="17.33" height="17.33"/>
<rect x="449.8" y="209.06" class="st2" width="17.33" height="17.33"/>
<rect x="467.13" y="209.06" class="st2" width="17.33" height="17.33"/>
<rect x="484.47" y="209.06" class="st2" width="17.33" height="17.33"/>
<rect x="501.8" y="209.06" class="st2" width="17.33" height="17.33"/>
<rect x="519.13" y="209.06" class="st2" width="17.33" height="17.33"/>
<rect x="536.47" y="209.06" class="st2" width="17.33" height="17.33"/>
<rect x="553.8" y="209.06" class="st2" width="17.33" height="17.33"/>
<rect x="571.13" y="209.06" class="st2" width="17.33" height="17.33"/>
<rect x="588.47" y="209.06" class="st2" width="17.33" height="17.33"/>
<rect x="605.8" y="209.06" class="st2" width="17.33" height="17.33"/>
<rect x="623.13" y="209.06" class="st2" width="17.33" height="17.33"/>
<rect x="640.47" y="209.06" class="st1" width="17.33" height="17.33"/>
<rect x="397.8" y="226.39" class="st0" width="17.33" height="17.33"/>
<rect x="415.13" y="226.39" class="st1" width="17.33" height="17.33"/>
<rect x="432.47" y="226.39" class="st2" width="17.33" height="17.33"/>
<rect x="449.8" y="226.39" class="st2" width="17.33" height="17.33"/>
<rect x="467.13" y="226.39" class="st2" width="17.33" height="17.33"/>
<rect x="484.47" y="226.39" class="st2" width="17.33" height="17.33"/>
<rect x="501.8" y="226.39" class="st2" width="17.33" height="17.33"/>
<rect x="519.13" y="226.39" class="st2" width="17.33" height="17.33"/>
<rect x="536.47" y="226.39" class="st2" width="17.33" height="17.33"/>
<rect x="553.8" y="226.39" class="st0" width="17.33" height="17.33"/>
<rect x="571.13" y="226.39" class="st0" width="17.33" height="17.33"/>
<rect x="588.47" y="226.39" class="st0" width="17.33" height="17.33"/>
<rect x="605.8" y="226.39" class="st0" width="17.33" height="17.33"/>
<rect x="623.13" y="226.39" class="st1" width="17.33" height="17.33"/>
<rect x="640.47" y="226.39" class="st0" width="17.33" height="17.33"/>
<rect x="397.8" y="243.72" class="st0" width="17.33" height="17.33"/>
<rect x="415.13" y="243.72" class="st1" width="17.33" height="17.33"/>
<rect x="432.47" y="243.72" class="st1" width="17.33" height="17.33"/>
<rect x="449.8" y="243.72" class="st0" width="17.33" height="17.33"/>
<rect x="467.13" y="243.72" class="st0" width="17.33" height="17.33"/>
<rect x="484.47" y="243.72" class="st0" width="17.33" height="17.33"/>
<rect x="501.8" y="243.72" class="st0" width="17.33" height="17.33"/>
<rect x="519.13" y="243.72" class="st0" width="17.33" height="17.33"/>
<rect x="536.47" y="243.72" class="st0" width="17.33" height="17.33"/>
<rect x="553.8" y="243.72" class="st0" width="17.33" height="17.33"/>
<rect x="571.13" y="243.72" class="st0" width="17.33" height="17.33"/>
<rect x="588.47" y="243.72" class="st0" width="17.33" height="17.33"/>
<rect x="605.8" y="243.72" class="st1" width="17.33" height="17.33"/>
<rect x="623.13" y="243.72" class="st1" width="17.33" height="17.33"/>
<rect x="640.47" y="243.72" class="st0" width="17.33" height="17.33"/>
<rect x="397.8" y="261.06" class="st0" width="17.33" height="17.33"/>
<rect x="415.13" y="261.06" class="st0" width="17.33" height="17.33"/>
<rect x="432.47" y="261.06" class="st1" width="17.33" height="17.33"/>
<rect x="449.8" y="261.06" class="st1" width="17.33" height="17.33"/>
<rect x="467.13" y="261.06" class="st0" width="17.33" height="17.33"/>
<rect x="484.47" y="261.06" class="st0" width="17.33" height="17.33"/>
<rect x="501.8" y="261.06" class="st0" width="17.33" height="17.33"/>
<rect x="519.13" y="261.06" class="st0" width="17.33" height="17.33"/>
<rect x="536.47" y="261.06" class="st0" width="17.33" height="17.33"/>
<rect x="553.8" y="261.06" class="st0" width="17.33" height="17.33"/>
<rect x="571.13" y="261.06" class="st0" width="17.33" height="17.33"/>
<rect x="588.47" y="261.06" class="st1" width="17.33" height="17.33"/>
<rect x="605.8" y="261.06" class="st1" width="17.33" height="17.33"/>
<rect x="623.13" y="261.06" class="st0" width="17.33" height="17.33"/>
<rect x="640.47" y="261.06" class="st0" width="17.33" height="17.33"/>
<rect x="397.8" y="278.39" class="st0" width="17.33" height="17.33"/>
<rect x="415.13" y="278.39" class="st0" width="17.33" height="17.33"/>
<rect x="432.47" y="278.39" class="st0" width="17.33" height="17.33"/>
<rect x="449.8" y="278.39" class="st1" width="17.33" height="17.33"/>
<rect x="467.13" y="278.39" class="st1" width="17.33" height="17.33"/>
<rect x="484.47" y="278.39" class="st0" width="17.33" height="17.33"/>
<rect x="501.8" y="278.39" class="st0" width="17.33" height="17.33"/>
<rect x="519.13" y="278.39" class="st0" width="17.33" height="17.33"/>
<rect x="536.47" y="278.39" class="st0" width="17.33" height="17.33"/>
<rect x="553.8" y="278.39" class="st0" width="17.33" height="17.33"/>
<rect x="571.13" y="278.39" class="st1" width="17.33" height="17.33"/>
<rect x="588.47" y="278.39" class="st1" width="17.33" height="17.33"/>
<rect x="605.8" y="278.39" class="st0" width="17.33" height="17.33"/>
<rect x="623.13" y="278.39" class="st0" width="17.33" height="17.33"/>
<rect x="640.47" y="278.39" class="st0" width="17.33" height="17.33"/>
<rect x="397.8" y="295.72" class="st0" width="17.33" height="17.33"/>
<rect x="415.13" y="295.72" class="st0" width="17.33" height="17.33"/>
<rect x="432.47" y="295.72" class="st0" width="17.33" height="17.33"/>
<rect x="449.8" y="295.72" class="st0" width="17.33" height="17.33"/>
<rect x="467.13" y="295.72" class="st0" width="17.33" height="17.33"/>
<rect x="484.47" y="295.72" class="st1" width="17.33" height="17.33"/>
<rect x="501.8" y="295.72" class="st1" width="17.33" height="17.33"/>
<rect x="519.13" y="295.72" class="st1" width="17.33" height="17.33"/>
<rect x="536.47" y="295.72" class="st1" width="17.33" height="17.33"/>
<rect x="553.8" y="295.72" class="st1" width="17.33" height="17.33"/>
<rect x="571.13" y="295.72" class="st0" width="17.33" height="17.33"/>
<rect x="588.47" y="295.72" class="st0" width="17.33" height="17.33"/>
<rect x="605.8" y="295.72" class="st0" width="17.33" height="17.33"/>
<rect x="623.13" y="295.72" class="st0" width="17.33" height="17.33"/>
<rect x="640.47" y="295.72" class="st0" width="17.33" height="17.33"/>
<circle class="st3" cx="527.8" cy="183.06" r="120.35"/>
<g>
	<g>
		<polyline class="st4" points="405.64,152.78 405.64,304.37 552.56,304.37 		"/>
		<g>
			<polygon points="405.64,145.72 401.57,155.67 405.64,153.31 409.7,155.67 			"/>
		</g>
		<g>
			<polygon points="559.62,304.37 549.67,308.44 552.03,304.37 549.67,300.31 			"/>
		</g>
	</g>
</g>
<g>
	<g>
		<path class="st5" d="M425.45,233.32"/>
	</g>
</g>
<text transform="matrix(1 0 0 1 521.7281 327.7786)" class="st6 st7">X AXIS</text>
<rect x="441.13" y="161.67" class="st8" width="80.6" height="34.54"/>
<text transform="matrix(1 0 0 1 460.8715 175.582)" class="st9"><tspan x="0" y="0" class="st6 st10">CENTER</tspan><tspan x="-16.69" y="12" class="st6 st10">X 22.75, Y 22.75</tspan></text>
<circle class="st11" cx="527.8" cy="182.75" r="3"/>
<rect x="558.51" y="210.26" class="st8" width="77.24" height="47.39"/>
<text transform="matrix(1 0 0 1 564.3911 224.5973)" class="st9"><tspan x="0" y="0" class="st6 st10">COLUMN = 8</tspan><tspan x="0" y="12" class="st6 st10">ROW = 10</tspan><tspan x="0" y="24" class="st6 st10">X 26,  Y 32.5</tspan></text>
<g>
	<g>
		<polyline class="st0" points="544.91,234.75 559.73,254.79 599.39,254.79 		"/>
		<g>
			<path d="M543.45,235.95c-0.62-0.83-0.44-2.01,0.39-2.63c0.83-0.62,2.01-0.44,2.63,0.39s0.44,2.01-0.39,2.63
				S544.07,236.78,543.45,235.95z"/>
		</g>
	</g>
</g>
<text transform="matrix(1 0 0 1 387.0804 65.8429)" class="st6 st7">0</text>
<text transform="matrix(1 0 0 1 387.0804 83.1719)" class="st6 st7">1</text>
<text transform="matrix(1 0 0 1 387.0802 100.5011)" class="st6 st7">2</text>
<text transform="matrix(1 0 0 1 387.0803 117.8304)" class="st6 st7">3</text>
<text transform="matrix(1 0 0 1 387.0803 135.1595)" class="st6 st7">4</text>
<text transform="matrix(1 0 0 1 387.0803 152.4885)" class="st6 st7">5</text>
<text transform="matrix(1 0 0 1 387.0803 169.818)" class="st6 st7">6</text>
<text transform="matrix(1 0 0 1 387.0803 187.1471)" class="st6 st7">7</text>
<text transform="matrix(1 0 0 1 387.0803 204.4761)" class="st6 st7">8</text>
<text transform="matrix(1 0 0 1 387.0803 221.8051)" class="st6 st7">9</text>
<text transform="matrix(1 0 0 1 380.4065 239.1341)" class="st6 st7">10</text>
<text transform="matrix(1 0 0 1 380.4065 256.4642)" class="st6 st7">11</text>
<text transform="matrix(1 0 0 1 380.4065 273.7932)" class="st6 st7">12</text>
<text transform="matrix(1 0 0 1 380.4065 291.1222)" class="st6 st7">13</text>
<text transform="matrix(1 0 0 1 380.4066 308.4516)" class="st6 st7">14</text>
<text transform="matrix(1 0 0 1 403.1278 47.7748)" class="st6 st7">0</text>
<text transform="matrix(1 0 0 1 420.4615 47.774)" class="st6 st7">1</text>
<text transform="matrix(1 0 0 1 437.7945 47.7734)" class="st6 st7">2</text>
<text transform="matrix(1 0 0 1 455.128 47.7732)" class="st6 st7">3</text>
<text transform="matrix(1 0 0 1 472.4616 47.7736)" class="st6 st7">4</text>
<text transform="matrix(1 0 0 1 489.7946 47.7742)" class="st6 st7">5</text>
<text transform="matrix(1 0 0 1 507.1278 47.7745)" class="st6 st7">6</text>
<text transform="matrix(1 0 0 1 524.4616 47.7743)" class="st6 st7">7</text>
<text transform="matrix(1 0 0 1 541.7943 47.7739)" class="st6 st7">8</text>
<text transform="matrix(1 0 0 1 559.1281 47.775)" class="st6 st7">9</text>
<text transform="matrix(1 0 0 1 573.1244 47.7751)" class="st6 st7">10</text>
<text transform="matrix(1 0 0 1 590.2347 47.775)" class="st6 st7">11</text>
<text transform="matrix(1 0 0 1 607.3462 47.7743)" class="st6 st7">12</text>
<text transform="matrix(1 0 0 1 624.902 47.7745)" class="st6 st7">13</text>
<text transform="matrix(1 0 0 1 642.4577 47.7748)" class="st6 st7">14</text>
<rect x="399.54" y="120.29" class="st8" width="48.51" height="21.54"/>
<text transform="matrix(1 0 0 1 404.3814 135.245)" class="st6 st7">Y AXIS</text>
<text transform="matrix(1 0 0 1 562.4631 19.0779)" class="st6 st10">STEP SIZE = 3.25</text>
</svg>
