<?xml version="1.0" encoding="utf-8"?>
<svg version="1.1" id="stepsize" xmlns="http://www.w3.org/2000/svg" xmlns:xlink="http://www.w3.org/1999/xlink" x="0px" y="0px"
	 viewBox="0 0 500 300" style="enable-background:new 0 0 500 300;" xml:space="preserve">
<style type="text/css">
	.st0{fill:#FFFFFF;stroke:#000000;stroke-width:2;stroke-miterlimit:10;}
	.st1{fill:#FFFFFF;stroke:#000000;stroke-miterlimit:10;}
	.st2{fill:#FFFFFF;}
	.st3{fill:none;stroke:#000000;stroke-width:0.5;stroke-miterlimit:10;}
	.st4{font-family:'Arial';}
	.st5{font-size:12px;}
	.st6{stroke:#000000;stroke-miterlimit:10;}
	.st7{stroke:#000000;stroke-width:0.5;stroke-miterlimit:10;}
</style>
<rect x="96.39" y="56.52" class="st0" width="92.35" height="52.7"/>
<line class="st1" x1="137.35" y1="82.93" x2="147.78" y2="82.93"/>
<line class="st1" x1="142.57" y1="78.3" x2="142.57" y2="87.57"/>
<rect x="203.83" y="56.52" class="st0" width="92.35" height="52.7"/>
<line class="st1" x1="244.78" y1="82.93" x2="255.22" y2="82.93"/>
<line class="st1" x1="250" y1="78.3" x2="250" y2="87.57"/>
<rect x="311.26" y="56.52" class="st0" width="92.35" height="52.7"/>
<line class="st1" x1="352.22" y1="82.93" x2="362.65" y2="82.93"/>
<line class="st1" x1="357.43" y1="78.3" x2="357.43" y2="87.57"/>
<rect x="96.39" y="123.65" class="st0" width="92.35" height="52.7"/>
<line class="st1" x1="137.35" y1="150.07" x2="147.78" y2="150.07"/>
<line class="st1" x1="142.57" y1="145.43" x2="142.57" y2="154.7"/>
<rect x="203.83" y="123.65" class="st0" width="92.35" height="52.7"/>
<line class="st1" x1="244.78" y1="150.07" x2="255.22" y2="150.07"/>
<line class="st1" x1="250" y1="145.43" x2="250" y2="154.7"/>
<rect x="311.26" y="123.65" class="st0" width="92.35" height="52.7"/>
<line class="st1" x1="352.22" y1="150.07" x2="362.65" y2="150.07"/>
<line class="st1" x1="357.43" y1="145.43" x2="357.43" y2="154.7"/>
<rect x="96.39" y="190.78" class="st0" width="92.35" height="52.7"/>
<line class="st1" x1="137.35" y1="217.2" x2="147.78" y2="217.2"/>
<line class="st1" x1="142.57" y1="212.57" x2="142.57" y2="221.83"/>
<rect x="203.83" y="190.78" class="st0" width="92.35" height="52.7"/>
<line class="st1" x1="244.78" y1="217.2" x2="255.22" y2="217.2"/>
<line class="st1" x1="250" y1="212.57" x2="250" y2="221.83"/>
<rect x="311.26" y="190.78" class="st0" width="92.35" height="52.7"/>
<line class="st1" x1="352.22" y1="217.2" x2="362.65" y2="217.2"/>
<line class="st1" x1="357.43" y1="212.57" x2="357.43" y2="221.83"/>
<line class="st1" x1="142.57" y1="82.93" x2="142.57" y2="34.13"/>
<line class="st1" x1="250" y1="82.87" x2="250" y2="34.13"/>
<line class="st1" x1="357.43" y1="82.87" x2="357.43" y2="34.13"/>
<path class="st1" d="M357.43,37.61"/>
<g>
	<line class="st2" x1="249.72" y1="46.35" x2="142.28" y2="46.35"/>
	<g>
		<line class="st3" x1="246.19" y1="46.35" x2="145.81" y2="46.35"/>
		<g>
			<polygon points="249.72,46.35 244.74,44.32 245.92,46.35 244.74,48.38 			"/>
		</g>
		<g>
			<polygon points="142.28,46.35 147.26,44.32 146.08,46.35 147.26,48.38 			"/>
		</g>
	</g>
</g>
<g>
	<line class="st2" x1="357.43" y1="46.35" x2="250" y2="46.35"/>
	<g>
		<line class="st3" x1="353.9" y1="46.35" x2="253.53" y2="46.35"/>
		<g>
			<polygon points="357.43,46.35 352.46,44.32 353.64,46.35 352.46,48.38 			"/>
		</g>
		<g>
			<polygon points="250,46.35 254.97,44.32 253.79,46.35 254.97,48.38 			"/>
		</g>
	</g>
</g>
<text transform="matrix(1 0 0 1 224.9566 26.1305)" class="st4 st5">Step Size</text>
<line class="st1" x1="96.39" y1="243.48" x2="96.39" y2="267.09"/>
<line class="st1" x1="188.74" y1="243.48" x2="188.74" y2="267.09"/>
<line class="st1" x1="203.83" y1="243.48" x2="203.83" y2="267.09"/>
<line class="st1" x1="296.17" y1="243.48" x2="296.17" y2="267.09"/>
<line class="st1" x1="311.26" y1="243.48" x2="311.26" y2="267.09"/>
<line class="st1" x1="403.61" y1="243.48" x2="403.61" y2="267.09"/>
<g>
	<line class="st2" x1="96.39" y1="255.22" x2="188.74" y2="255.22"/>
	<g>
		<line class="st3" x1="99.92" y1="255.22" x2="185.21" y2="255.22"/>
		<g>
			<polygon points="96.39,255.22 101.37,257.25 100.19,255.22 101.37,253.19 			"/>
		</g>
		<g>
			<polygon points="188.74,255.22 183.76,257.25 184.94,255.22 183.76,253.19 			"/>
		</g>
	</g>
</g>
<g>
	<line class="st2" x1="203.83" y1="255.22" x2="296.17" y2="255.22"/>
	<g>
		<line class="st3" x1="207.36" y1="255.22" x2="292.64" y2="255.22"/>
		<g>
			<polygon points="203.83,255.22 208.8,257.25 207.62,255.22 208.8,253.19 			"/>
		</g>
		<g>
			<polygon points="296.17,255.22 291.2,257.25 292.38,255.22 291.2,253.19 			"/>
		</g>
	</g>
</g>
<g>
	<line class="st2" x1="311.26" y1="255.22" x2="403.61" y2="255.22"/>
	<g>
		<line class="st3" x1="314.79" y1="255.22" x2="400.08" y2="255.22"/>
		<g>
			<polygon points="311.26,255.22 316.24,257.25 315.06,255.22 316.24,253.19 			"/>
		</g>
		<g>
			<polygon points="403.61,255.22 398.63,257.25 399.81,255.22 398.63,253.19 			"/>
		</g>
	</g>
</g>
<text transform="matrix(1 0 0 1 218.6085 282.2175)" class="st4 st5">Device Size</text>
<line class="st6" x1="403.61" y1="109.22" x2="428.74" y2="109.22"/>
<line class="st6" x1="403.61" y1="123.65" x2="428.74" y2="123.65"/>
<line class="st6" x1="403.61" y1="176.35" x2="428.74" y2="176.35"/>
<line class="st6" x1="403.61" y1="190.78" x2="428.74" y2="190.78"/>
<g>
	<line x1="416.17" y1="190.78" x2="416.17" y2="207.7"/>
	<g>
		<line class="st3" x1="416.17" y1="194.31" x2="416.17" y2="207.7"/>
		<g>
			<polygon points="416.17,190.78 414.14,195.76 416.17,194.58 418.21,195.76 			"/>
		</g>
	</g>
</g>
<path class="st7" d="M416.17,190.78"/>
<path class="st7" d="M416.17,176.35"/>
<g>
	<line x1="416.17" y1="159.17" x2="416.17" y2="176.35"/>
	<g>
		<line class="st3" x1="416.17" y1="159.17" x2="416.17" y2="172.82"/>
		<g>
			<polygon points="416.17,176.35 414.14,171.37 416.17,172.55 418.21,171.37 			"/>
		</g>
	</g>
</g>
<path class="st7" d="M416.17,159.17"/>
<path class="st7" d="M416.17,141.43"/>
<g>
	<line x1="416.17" y1="123.65" x2="416.17" y2="141.43"/>
	<g>
		<line class="st3" x1="416.17" y1="127.18" x2="416.17" y2="141.43"/>
		<g>
			<polygon points="416.17,123.65 414.14,128.63 416.17,127.45 418.21,128.63 			"/>
		</g>
	</g>
</g>
<path class="st7" d="M416.17,123.65"/>
<path class="st7" d="M416.17,109.22"/>
<g>
	<line x1="416.17" y1="91.87" x2="416.17" y2="109.22"/>
	<g>
		<line class="st3" x1="416.17" y1="91.87" x2="416.17" y2="105.69"/>
		<g>
			<polygon points="416.17,109.22 414.14,104.24 416.17,105.42 418.21,104.24 			"/>
		</g>
	</g>
</g>
<text transform="matrix(1 0 0 1 411.6813 82.8695)" class="st4 st5">Street Width</text>
</svg>
