<svg xmlns="http://www.w3.org/2000/svg" width="214.574" height="139.174" viewBox="0 0 214.574 139.174">
  <polygon points="161.834 137.674 181.095 137.674 167.098 126.674 161.834 137.674" fill="#39b54a" stroke="#39b54a" stroke-miterlimit="10" stroke-width="3" opacity="0.5"/>
  <polygon points="148.543 126.674 12.109 126.674 12.109 12.935 108.891 12.935 77.326 69.804 148.543 126.674" fill="#fff" stroke="#000" stroke-miterlimit="10" stroke-width="3"/>
  <polygon points="161.587 137.674 1.5 137.674 1.5 1.5 128.852 1.5 91.664 67.587 166.851 126.674 161.587 137.674" fill="none" stroke="#009245" stroke-miterlimit="10" stroke-width="3"/>
  <path d="M354.478,218.609" transform="translate(-24.239 -15.196)" fill="none" stroke="#000" stroke-miterlimit="10" stroke-width="3"/>
  <g>
    <line x1="93.754" y1="40.206" x2="113.094" y2="52.329" fill="none" stroke="#000" stroke-miterlimit="10"/>
    <polygon points="108.748 53.975 112.047 51.673 112.681 47.7 118.152 55.5 108.748 53.975"/>
  </g>
  <g>
    <path d="M142.558,58.957v-8.59h6.211v1.014h-5.075v2.631h4.752V55.02h-4.752v2.923h5.274v1.014Z" transform="translate(-24.239 -15.196)"/>
    <path d="M149.7,58.957l2.274-3.234-2.1-2.989h1.318l.956,1.459c.179.278.324.51.433.7q.258-.387.475-.686l1.049-1.471h1.259l-2.15,2.93,2.314,3.293h-1.295l-1.277-1.934-.34-.521-1.634,2.455Z" transform="translate(-24.239 -15.196)"/>
    <path d="M156.4,61.342V52.734h.961v.809a2.378,2.378,0,0,1,.768-.712,2.111,2.111,0,0,1,1.037-.237,2.454,2.454,0,0,1,1.406.41,2.516,2.516,0,0,1,.92,1.157,4.226,4.226,0,0,1,.311,1.638,4.169,4.169,0,0,1-.343,1.72,2.589,2.589,0,0,1-1,1.171,2.556,2.556,0,0,1-1.374.408,1.994,1.994,0,0,1-.947-.223,2.16,2.16,0,0,1-.688-.562v3.029Zm.955-5.461a2.707,2.707,0,0,0,.487,1.775,1.49,1.49,0,0,0,1.177.574,1.527,1.527,0,0,0,1.205-.594,2.823,2.823,0,0,0,.5-1.843,2.748,2.748,0,0,0-.49-1.781,1.472,1.472,0,0,0-1.169-.592,1.519,1.519,0,0,0-1.192.63A2.816,2.816,0,0,0,157.358,55.881Z" transform="translate(-24.239 -15.196)"/>
    <path d="M167.138,58.189a3.948,3.948,0,0,1-1.128.7,3.277,3.277,0,0,1-1.163.2,2.261,2.261,0,0,1-1.576-.5,1.652,1.652,0,0,1-.551-1.281,1.733,1.733,0,0,1,.753-1.441,2.56,2.56,0,0,1,.758-.346,7.731,7.731,0,0,1,.938-.158,9.654,9.654,0,0,0,1.881-.363q.006-.218.006-.276a1.166,1.166,0,0,0-.3-.908,1.767,1.767,0,0,0-1.2-.357,1.862,1.862,0,0,0-1.1.261,1.589,1.589,0,0,0-.524.922l-1.032-.14a2.559,2.559,0,0,1,.463-1.07,2.04,2.04,0,0,1,.932-.627,4.167,4.167,0,0,1,1.412-.219,3.74,3.74,0,0,1,1.295.187,1.7,1.7,0,0,1,.732.472,1.643,1.643,0,0,1,.328.718,5.824,5.824,0,0,1,.053.972V56.35a14.861,14.861,0,0,0,.068,1.86,2.338,2.338,0,0,0,.266.747h-1.1A2.221,2.221,0,0,1,167.138,58.189Zm-.088-2.355a7.736,7.736,0,0,1-1.723.4,4.031,4.031,0,0,0-.92.211.925.925,0,0,0-.416.343.908.908,0,0,0-.146.5.9.9,0,0,0,.319.7,1.371,1.371,0,0,0,.935.281,2.174,2.174,0,0,0,1.084-.266,1.647,1.647,0,0,0,.7-.73,2.547,2.547,0,0,0,.17-1.054Z" transform="translate(-24.239 -15.196)"/>
    <path d="M169.751,58.957V52.734h.949v.885a2.238,2.238,0,0,1,1.981-1.025,2.6,2.6,0,0,1,1.034.2,1.627,1.627,0,0,1,.706.53,2.037,2.037,0,0,1,.328.779,6.05,6.05,0,0,1,.059,1.026v3.826h-1.055V55.172a2.842,2.842,0,0,0-.123-.964,1.015,1.015,0,0,0-.437-.51,1.387,1.387,0,0,0-.735-.19,1.7,1.7,0,0,0-1.163.428,2.11,2.11,0,0,0-.489,1.623v3.4Z" transform="translate(-24.239 -15.196)"/>
    <path d="M180.462,58.957v-.785a1.937,1.937,0,0,1-1.74.926,2.443,2.443,0,0,1-1.368-.41,2.7,2.7,0,0,1-.967-1.146,3.951,3.951,0,0,1-.343-1.69,4.425,4.425,0,0,1,.31-1.691A2.457,2.457,0,0,1,177.286,53a2.5,2.5,0,0,1,1.389-.4,2.075,2.075,0,0,1,1.717.855V50.367h1.048v8.59Zm-3.334-3.105a2.7,2.7,0,0,0,.5,1.787,1.519,1.519,0,0,0,1.189.591A1.491,1.491,0,0,0,180,57.665a2.609,2.609,0,0,0,.483-1.726,2.929,2.929,0,0,0-.492-1.875,1.514,1.514,0,0,0-1.213-.6,1.459,1.459,0,0,0-1.174.574A2.831,2.831,0,0,0,177.128,55.852Z" transform="translate(-24.239 -15.196)"/>
  </g>
  <g>
    <path d="M191.556,123.131h-.984l-.227-4.113c-.073-1.308-.168-3-.157-3.935h-.036c-.3,1.031-.672,2.159-1.115,3.431l-1.631,4.581h-.731l-1.524-4.486c-.443-1.319-.792-2.47-1.044-3.526h-.035c-.024,1.115-.1,2.627-.18,4.03l-.252,4.018h-.948l.636-9.139h1.224l1.607,4.642c.384,1.138.684,2.11.923,3.057h.036c.228-.922.54-1.882.947-3.057l1.667-4.642h1.248Z" transform="translate(-24.239 -15.196)"/>
    <path d="M193.805,115.443a.647.647,0,0,1-.649-.683.654.654,0,0,1,.66-.672.678.678,0,0,1-.011,1.355Zm.5,7.688h-1V116.6h1Z" transform="translate(-24.239 -15.196)"/>
    <path d="M196.552,115.407l.983-.336V116.6h1.692v.779h-1.692v3.778c0,.827.252,1.284.888,1.284a1.943,1.943,0,0,0,.672-.1l.059.767a2.488,2.488,0,0,1-.971.157c-1.583,0-1.631-1.44-1.631-2.135v-3.754h-1.007V116.6h1.007Z" transform="translate(-24.239 -15.196)"/>
    <path d="M205.166,122.855a4.742,4.742,0,0,1-2.051.408,2.975,2.975,0,0,1-3.047-3.3c0-2.051,1.152-3.527,2.914-3.527,2.016,0,2.532,1.847,2.532,2.987,0,.227-.013.395-.025.552H201.04c.012,1.81,1.043,2.495,2.219,2.495a4.131,4.131,0,0,0,1.715-.336Zm-.636-3.622c.012-.887-.36-2.039-1.643-2.039-1.2,0-1.727,1.14-1.824,2.039Z" transform="translate(-24.239 -15.196)"/>
    <path d="M209.99,117.434a2.989,2.989,0,0,0-.359-.024c-1.08,0-1.632,1.068-1.632,2.171v3.55h-1V118.55c0-.7-.012-1.332-.048-1.955h.875l.049,1.259h.035a1.958,1.958,0,0,1,1.775-1.4,2.729,2.729,0,0,1,.3.036Z" transform="translate(-24.239 -15.196)"/>
    <path d="M216.759,120.229c0,2.338-1.115,3.045-2.579,3.045a3.384,3.384,0,0,1-1.139-.191l.144-.815a2.724,2.724,0,0,0,.923.155c1.055,0,1.656-.468,1.656-2.278V114h.995Z" transform="translate(-24.239 -15.196)"/>
    <path d="M224.221,119.809c0,2.434-1.607,3.465-3.058,3.465-1.68,0-2.975-1.258-2.975-3.37,0-2.23,1.391-3.466,3.059-3.466C223.033,116.438,224.221,117.806,224.221,119.809Zm-3.01-2.591c-1.415,0-2,1.391-2,2.651,0,1.451.8,2.626,1.979,2.626s2.014-1.175,2.014-2.65C223.2,118.682,222.638,117.218,221.211,117.218Z" transform="translate(-24.239 -15.196)"/>
    <path d="M226.228,115.443a.647.647,0,0,1-.649-.683.653.653,0,0,1,.66-.672.678.678,0,0,1-.011,1.355Zm.5,7.688h-.995V116.6h.995Z" transform="translate(-24.239 -15.196)"/>
    <path d="M233.94,123.131h-1v-3.862c0-1.068-.383-2-1.522-2a1.781,1.781,0,0,0-1.716,1.859v4.006h-.995v-4.858c0-.671-.024-1.163-.048-1.691h.888l.059,1.067h.025a2.334,2.334,0,0,1,2.1-1.211c.816,0,2.207.493,2.207,2.711Z" transform="translate(-24.239 -15.196)"/>
    <path d="M236.139,115.407l.983-.336V116.6h1.691v.779h-1.691v3.778c0,.827.252,1.284.888,1.284a1.943,1.943,0,0,0,.672-.1l.059.767a2.489,2.489,0,0,1-.97.157c-1.584,0-1.632-1.44-1.632-2.135v-3.754h-1.007V116.6h1.007Z" transform="translate(-24.239 -15.196)"/>
  </g>
  <g>
    <line x1="179.196" y1="111.457" x2="171.705" y2="133.066" fill="none" stroke="#000" stroke-miterlimit="10"/>
    <polygon points="170.416 131.133 171.908 132.482 173.915 132.346 170.728 135.886 170.416 131.133"/>
  </g>
</svg>
