<svg xmlns="http://www.w3.org/2000/svg" width="195.261" height="139.174" viewBox="0 0 195.261 139.174">
  <polyline points="80.675 63.102 48.352 71.89 80.979 78.306" fill="#39b54a" stroke="#39b54a" stroke-miterlimit="10" stroke-width="3" opacity="0.5"/>
  <polygon points="193.761 137.674 1.5 137.674 1.5 1.5 193.761 1.5 193.761 44.543 102.891 69.587 193.761 88.37 193.761 137.674" fill="none" stroke="#000" stroke-miterlimit="10" stroke-width="3"/>
  <path d="M354.478,218.609" transform="translate(-24.239 -15.196)" fill="none" stroke="#000" stroke-miterlimit="10" stroke-width="3"/>
  <g>
    <line x1="73.935" y1="1.5" x2="73.935" y2="32.313" fill="none" stroke="#000" stroke-miterlimit="10"/>
    <polygon points="70.232 29.504 73.935 31.078 77.638 29.504 73.935 38.283 70.232 29.504"/>
  </g>
  <g>
    <path d="M51.756,44.066l1.073-.093a2.363,2.363,0,0,0,.354,1.057,1.937,1.937,0,0,0,.864.668,3.274,3.274,0,0,0,1.319.255,3.157,3.157,0,0,0,1.148-.193,1.591,1.591,0,0,0,.741-.531,1.228,1.228,0,0,0,.244-.735,1.12,1.12,0,0,0-.235-.706,1.739,1.739,0,0,0-.773-.507,15.306,15.306,0,0,0-1.53-.419,7.8,7.8,0,0,1-1.658-.536,2.322,2.322,0,0,1-.917-.8,1.959,1.959,0,0,1-.3-1.069,2.185,2.185,0,0,1,.37-1.216,2.28,2.28,0,0,1,1.078-.858,4.093,4.093,0,0,1,1.576-.293,4.3,4.3,0,0,1,1.684.307,2.434,2.434,0,0,1,1.123.906,2.6,2.6,0,0,1,.421,1.353l-1.089.082a1.758,1.758,0,0,0-.595-1.23,2.311,2.311,0,0,0-1.5-.416,2.4,2.4,0,0,0-1.5.378,1.131,1.131,0,0,0-.472.911.982.982,0,0,0,.334.762,4.533,4.533,0,0,0,1.714.612,11.226,11.226,0,0,1,1.9.548,2.6,2.6,0,0,1,1.108.876,2.132,2.132,0,0,1,.357,1.221,2.341,2.341,0,0,1-.392,1.292,2.587,2.587,0,0,1-1.128.944,3.942,3.942,0,0,1-1.656.337,4.955,4.955,0,0,1-1.954-.34,2.743,2.743,0,0,1-1.236-1.023A2.9,2.9,0,0,1,51.756,44.066Z" transform="translate(-24.239 -15.196)"/>
    <path d="M60.012,46.826v-8.59h1.055v3.082a2.356,2.356,0,0,1,1.863-.855,2.517,2.517,0,0,1,1.2.272,1.606,1.606,0,0,1,.73.753,3.482,3.482,0,0,1,.22,1.4v3.943H64.026V42.883a1.629,1.629,0,0,0-.343-1.152,1.275,1.275,0,0,0-.97-.36,1.708,1.708,0,0,0-.881.243,1.37,1.37,0,0,0-.589.659,3.017,3.017,0,0,0-.176,1.149v3.4Z" transform="translate(-24.239 -15.196)"/>
    <path d="M66.674,46.826V40.6h.95v.943a2.56,2.56,0,0,1,.67-.873,1.171,1.171,0,0,1,.677-.211,2.052,2.052,0,0,1,1.084.34l-.363.978a1.513,1.513,0,0,0-.774-.228,1,1,0,0,0-.621.208,1.126,1.126,0,0,0-.392.577,4.112,4.112,0,0,0-.176,1.23v3.258Z" transform="translate(-24.239 -15.196)"/>
    <path d="M70.688,39.449V38.236h1.055v1.213Zm0,7.377V40.6h1.055v6.222Z" transform="translate(-24.239 -15.196)"/>
    <path d="M73.348,46.826V40.6H74.3v.884a2.239,2.239,0,0,1,1.981-1.025,2.592,2.592,0,0,1,1.034.2,1.635,1.635,0,0,1,.706.53,2.035,2.035,0,0,1,.328.78A6.028,6.028,0,0,1,78.405,43v3.826H77.35V43.041a2.842,2.842,0,0,0-.123-.964,1.013,1.013,0,0,0-.436-.51,1.391,1.391,0,0,0-.736-.19,1.71,1.71,0,0,0-1.163.428,2.11,2.11,0,0,0-.489,1.623v3.4Z" transform="translate(-24.239 -15.196)"/>
    <path d="M80.028,46.826v-8.59h1.055v4.9l2.5-2.531h1.365l-2.379,2.308,2.619,3.914h-1.3l-2.056-3.181-.744.714v2.467Z" transform="translate(-24.239 -15.196)"/>
  </g>
  <path d="M122.022,84.783" transform="translate(-24.239 -15.196)" fill="none" stroke="#000" stroke-miterlimit="10" stroke-width="3"/>
  <polygon points="181.935 125.543 12.5 125.543 12.5 13.239 181.935 13.239 181.935 35.543 80.628 63.086 80.932 78.29 181.935 98.152 181.935 125.543" fill="none" stroke="#009245" stroke-miterlimit="10" stroke-width="3"/>
  <path d="M320.174,89.739" transform="translate(-24.239 -15.196)" fill="none" stroke="#009245" stroke-miterlimit="10" stroke-width="3"/>
  <g>
    <line x1="60.864" y1="94.37" x2="67.863" y2="73.534" fill="none" stroke="#000" stroke-miterlimit="10"/>
    <polygon points="69.171 75.455 67.666 74.119 65.66 74.276 68.813 70.704 69.171 75.455"/>
  </g>
  <g>
    <path d="M58.63,120.521v-8.589h1.711l2.033,6.082q.282.849.41,1.271.147-.468.457-1.377l2.057-5.976h1.529v8.589h-1.1v-7.189l-2.5,7.189H62.21l-2.484-7.312v7.312Z" transform="translate(-24.239 -15.196)"/>
    <path d="M68.532,113.145v-1.213h1.055v1.213Zm0,7.376V114.3h1.055v6.222Z" transform="translate(-24.239 -15.196)"/>
    <path d="M73.5,119.578l.152.932a3.938,3.938,0,0,1-.8.094,1.806,1.806,0,0,1-.891-.182,1.014,1.014,0,0,1-.445-.478,3.771,3.771,0,0,1-.129-1.245v-3.58h-.774v-.82h.774v-1.541l1.049-.633V114.3H73.5v.82h-1.06v3.639a1.847,1.847,0,0,0,.055.58.44.44,0,0,0,.182.205.7.7,0,0,0,.36.076A3.487,3.487,0,0,0,73.5,119.578Z" transform="translate(-24.239 -15.196)"/>
    <path d="M78.786,118.518l1.09.134a2.661,2.661,0,0,1-.955,1.483,2.876,2.876,0,0,1-1.781.527,2.843,2.843,0,0,1-2.165-.841,3.28,3.28,0,0,1-.8-2.358,3.441,3.441,0,0,1,.808-2.438,2.739,2.739,0,0,1,2.1-.867,2.658,2.658,0,0,1,2.039.85,3.376,3.376,0,0,1,.791,2.39q0,.095-.006.282h-4.64a2.389,2.389,0,0,0,.58,1.57,1.726,1.726,0,0,0,1.3.545,1.617,1.617,0,0,0,.99-.305A2.023,2.023,0,0,0,78.786,118.518Zm-3.463-1.7H78.8a2.1,2.1,0,0,0-.4-1.178,1.617,1.617,0,0,0-1.306-.61,1.677,1.677,0,0,0-1.222.487A1.925,1.925,0,0,0,75.323,116.813Z" transform="translate(-24.239 -15.196)"/>
    <path d="M81.188,120.521V114.3h.95v.943a2.581,2.581,0,0,1,.671-.873,1.173,1.173,0,0,1,.676-.211,2.052,2.052,0,0,1,1.084.34l-.363.979a1.5,1.5,0,0,0-.773-.229,1,1,0,0,0-.621.208,1.126,1.126,0,0,0-.393.577,4.114,4.114,0,0,0-.176,1.231v3.257Z" transform="translate(-24.239 -15.196)"/>
    <path d="M88.085,118.084l1.025-.141a2.2,2.2,0,0,0,.369,1.348,1.164,1.164,0,0,0,.909.363,1.351,1.351,0,0,0,.738-.2,1.01,1.01,0,0,0,.428-.533,3.567,3.567,0,0,0,.117-1.075v-5.918h1.137v5.853a4.258,4.258,0,0,1-.261,1.67,1.854,1.854,0,0,1-.826.9,2.717,2.717,0,0,1-1.327.311,2.244,2.244,0,0,1-1.732-.65A2.686,2.686,0,0,1,88.085,118.084Z" transform="translate(-24.239 -15.196)"/>
    <path d="M94.138,117.41a3.2,3.2,0,0,1,.961-2.56,2.894,2.894,0,0,1,1.957-.692,2.79,2.79,0,0,1,2.1.841,3.2,3.2,0,0,1,.815,2.323,4.107,4.107,0,0,1-.361,1.89,2.547,2.547,0,0,1-1.048,1.069,3.053,3.053,0,0,1-1.5.381,2.8,2.8,0,0,1-2.113-.838A3.346,3.346,0,0,1,94.138,117.41Zm1.084,0a2.653,2.653,0,0,0,.521,1.79,1.736,1.736,0,0,0,2.619,0,2.711,2.711,0,0,0,.522-1.822,2.567,2.567,0,0,0-.525-1.749,1.738,1.738,0,0,0-2.616,0A2.642,2.642,0,0,0,95.222,117.41Z" transform="translate(-24.239 -15.196)"/>
    <path d="M101.21,113.145v-1.213h1.055v1.213Zm0,7.376V114.3h1.055v6.222Z" transform="translate(-24.239 -15.196)"/>
    <path d="M103.87,120.521V114.3h.949v.885a2.238,2.238,0,0,1,1.981-1.026,2.609,2.609,0,0,1,1.034.2,1.629,1.629,0,0,1,.706.531,2.024,2.024,0,0,1,.328.779,6.028,6.028,0,0,1,.059,1.025v3.826h-1.055v-3.785a2.846,2.846,0,0,0-.123-.964,1.02,1.02,0,0,0-.436-.509,1.391,1.391,0,0,0-.736-.191,1.71,1.71,0,0,0-1.163.428,2.11,2.11,0,0,0-.489,1.623v3.4Z" transform="translate(-24.239 -15.196)"/>
    <path d="M112.847,119.578l.152.932a3.947,3.947,0,0,1-.8.094,1.8,1.8,0,0,1-.89-.182,1.016,1.016,0,0,1-.446-.478,3.771,3.771,0,0,1-.129-1.245v-3.58h-.773v-.82h.773v-1.541l1.049-.633V114.3h1.061v.82h-1.061v3.639a1.837,1.837,0,0,0,.056.58.438.438,0,0,0,.181.205.7.7,0,0,0,.361.076A3.5,3.5,0,0,0,112.847,119.578Z" transform="translate(-24.239 -15.196)"/>
  </g>
</svg>
